# 3ds Max Wavefront OBJ Exporter v0.97b - (c)2007 guruware
# File Created: 05.02.2017 22:27:00

#
# object RootWallLvl1
#

v  -196.850433 0.000003 23.536453
v  196.850342 0.000003 23.537384
v  -196.850327 0.000003 -23.537415
v  196.850327 0.000003 -23.536514
v  -196.850433 227.399384 19.151306
v  196.850342 227.399384 19.152267
v  -196.850327 227.399384 -19.152313
v  196.850327 227.399384 -19.151398
v  -185.208603 232.383743 23.372864
v  -175.889145 227.964020 14.665253
v  -165.053192 230.445099 22.162415
v  -152.869995 230.191925 21.491913
v  -141.059479 227.399384 12.838531
v  -70.792755 229.666595 15.832977
v  157.554993 240.571335 10.998108
v  170.557846 238.663254 15.833588
v  183.538315 232.266220 15.833618
v  186.661713 231.744263 -23.536469
v  175.862640 229.996185 -23.536484
v  159.387695 233.394608 -23.536530
v  -63.334274 229.666595 -29.035950
v  -144.896027 227.399384 -23.537292
v  -154.537292 239.122223 -23.886871
v  -171.222519 237.783325 -21.309784
v  -177.060944 227.964020 -23.537369
v  -185.124054 232.383743 -23.537384
v  -120.811852 233.785599 18.183090
v  -109.085762 233.785599 -30.082443
v  147.197525 229.215973 15.833527
v  151.122711 227.457932 -23.536545
v  -58.930603 233.084320 22.925873
v  -43.740498 233.084320 -31.423126
v  -14.251205 230.426483 22.388565
v  -31.676138 229.011047 -20.651337
v  106.167755 224.085571 16.530548
v  113.123268 229.183060 -26.822266
v  44.248314 230.481812 23.380112
v  97.161850 232.886780 11.297745
v  101.099205 235.045349 -27.387894
v  17.833437 236.915375 -28.325424
v  -3.657650 233.747650 22.220230
v  -19.526178 235.924637 -26.075012
v  60.919533 234.985474 0.712311
v  3.962747 234.883499 -21.208572
v  196.850327 199.251785 26.627869
v  -196.850449 199.251785 26.626892
v  196.850464 199.251785 -26.627029
v  -196.850311 199.251785 -26.627960
v  -164.206146 220.686707 -38.171249
v  -126.729034 194.284500 -32.884933
v  -50.395336 199.251785 -32.161224
v  -24.302345 199.251785 -29.445099
v  114.002747 199.251785 -29.072479
v  -166.833237 190.711868 25.106247
v  -184.013962 199.251785 24.229782
v  -131.821762 184.874344 21.623398
v  -86.375031 180.256531 20.630630
v  -27.474499 171.257980 28.520493
v  -0.256992 183.363403 22.090805
v  51.307083 179.129730 30.717926
v  107.847603 173.541199 25.722183
v  157.267776 199.251785 32.613251
v  -119.638611 0.000003 -23.537231
v  -52.111942 0.000003 -23.537048
v  114.048904 0.000003 -26.486679
v  -0.236034 0.000003 -23.536926
v  -146.771912 0.000003 15.832794
v  -116.112190 0.000003 15.832870
v  -51.520130 0.000003 16.646759
v  -19.303993 0.000003 16.859390
v  44.963799 0.000003 15.833267
v  76.887123 0.000003 15.833359
v  129.972412 0.000003 19.572617
v  174.283325 0.000003 15.833588
v  174.581406 199.251785 -25.024506
v  166.008713 0.000003 -24.635345
v  66.307106 232.018509 -13.745880
v  66.262970 199.251785 -29.201096
v  58.785130 0.000003 -25.060287
v  66.288078 217.889709 -20.410065
v  42.305988 226.960709 -31.933533
v  46.078430 199.251785 -29.255478
# 82 vertices

vn 0.122228 0.708878 0.694660
vn 0.352547 0.651686 -0.671577
vn 0.287619 0.858993 -0.423564
vn 0.105207 0.118853 0.987322
vn -0.059370 0.170624 0.983546
vn -0.105993 -0.039833 0.993569
vn -0.354903 0.077183 -0.931712
vn -0.013297 0.790987 -0.611689
vn -0.289510 0.652226 -0.700561
vn 0.100230 0.639888 0.761904
vn 0.469944 0.597877 -0.649381
vn 0.217059 0.706323 -0.673790
vn 0.318766 0.768955 0.554163
vn 0.217059 0.706323 -0.673790
vn 0.050629 0.614631 -0.787188
vn 0.218250 0.832166 0.509772
vn 0.050629 0.614631 -0.787188
vn -0.167705 0.695042 -0.699137
vn -0.286387 0.665649 0.689125
vn 0.160405 0.701114 -0.694773
vn -0.077175 0.701349 -0.708628
vn -0.139886 0.736764 0.661521
vn -0.060629 0.743927 -0.665505
vn 0.352547 0.651686 -0.671577
vn -0.536390 0.648946 -0.539588
vn -0.468130 0.603174 0.645783
vn 0.099705 0.707476 0.699669
vn -0.013297 0.790987 -0.611689
vn 0.099705 0.707476 0.699669
vn 0.157488 0.826287 0.540783
vn -0.289510 0.652226 -0.700561
vn 0.157488 0.826287 0.540783
vn -0.260650 0.627381 0.733795
vn -0.525307 0.772104 -0.357643
vn -0.260650 0.627381 0.733795
vn 0.341348 0.570786 0.746783
vn -0.207172 0.724026 0.657926
vn -0.077175 0.701349 -0.708628
vn -0.060629 0.743927 -0.665505
vn -0.328063 0.911704 0.247325
vn -0.167705 0.695042 -0.699137
vn -0.172193 0.552301 -0.815667
vn -0.084954 0.621152 0.779072
vn 0.195502 0.777010 -0.598360
vn 0.160405 0.701114 -0.694773
vn -0.084954 0.621152 0.779072
vn -0.226989 0.739184 -0.634101
vn 0.195502 0.777010 -0.598360
vn -0.336833 0.676986 0.654396
vn -0.172193 0.552301 -0.815667
vn 0.214881 0.684717 -0.696411
vn 0.041410 0.610118 0.791228
vn 0.171158 0.578360 0.797625
vn 0.349267 0.837222 0.420799
vn 0.163223 0.774570 -0.611065
vn 0.349267 0.837222 0.420799
vn 0.171158 0.578360 0.797625
vn 0.349267 0.837222 0.420799
vn 0.163223 0.774570 -0.611065
vn 0.029615 0.998214 0.051878
vn -0.012746 0.804506 -0.593807
vn -0.095503 0.745173 -0.659997
vn 0.029615 0.998214 0.051878
vn -0.084954 0.621152 0.779072
vn 0.048235 -0.001394 0.998835
vn 0.039478 0.007712 0.999191
vn 0.004719 -0.046225 -0.998920
vn -0.026509 -0.051388 -0.998327
vn -0.085475 0.334529 -0.938501
vn -0.289510 0.652226 -0.700561
vn -0.525307 0.772104 -0.357643
vn 0.287619 0.858993 -0.423564
vn 0.352547 0.651686 -0.671577
vn -0.060629 0.743927 -0.665505
vn 0.056433 0.037758 -0.997692
vn 0.160405 0.701114 -0.694773
vn 0.058279 0.031775 -0.997795
vn 0.045703 0.001504 -0.998954
vn 0.195502 0.777010 -0.598360
vn -0.226989 0.739184 -0.634101
vn 0.058279 0.031775 -0.997795
vn 0.214881 0.684717 -0.696411
vn -0.172193 0.552301 -0.815667
vn 0.040409 0.026044 -0.998844
vn 0.122228 0.708878 0.694660
vn 0.341348 0.570786 0.746783
vn 0.033310 0.048277 0.998278
vn 0.157488 0.826287 0.540783
vn 0.099705 0.707476 0.699669
vn 0.123135 0.107648 0.986534
vn 0.122228 0.708878 0.694660
vn 0.033310 0.048277 0.998278
vn 0.044888 0.041518 0.998129
vn -0.139886 0.736764 0.661521
vn 0.044888 0.041518 0.998129
vn -0.039851 0.026984 0.998841
vn -0.084954 0.621152 0.779072
vn -0.286387 0.665649 0.689125
vn 0.048235 -0.001394 0.998835
vn 0.218250 0.832166 0.509772
vn -0.328063 0.911704 0.247325
vn -0.336833 0.676986 0.654396
vn 0.041410 0.610118 0.791228
vn -0.104217 0.704551 0.701959
vn 0.039478 0.007712 0.999191
vn 0.171158 0.578360 0.797625
vn 0.041410 0.610118 0.791228
vn -0.028014 0.031447 0.999113
vn -0.336833 0.676986 0.654396
vn 0.171158 0.578360 0.797625
vn -0.023737 0.045967 0.998661
vn -0.207172 0.724026 0.657926
vn -0.039851 0.026984 0.998841
vn 0.048235 -0.001394 0.998835
vn 0.157488 0.826287 0.540783
vn 0.123135 0.107648 0.986534
vn 0.033310 0.048277 0.998278
vn 0.341348 0.570786 0.746783
vn -0.260650 0.627381 0.733795
vn 0.033310 0.048277 0.998278
vn -0.468130 0.603174 0.645783
vn 0.182680 0.098294 0.978247
vn 0.123135 0.107648 0.986534
vn -0.026509 -0.051388 -0.998327
vn -0.354903 0.077183 -0.931712
vn -0.085475 0.334529 -0.938501
vn 0.056433 0.037758 -0.997692
vn 0.045703 0.001504 -0.998954
vn 0.004791 -0.032120 -0.999473
vn 0.058279 0.031775 -0.997795
vn -0.011093 -0.021914 -0.999698
vn 0.004791 -0.032120 -0.999473
vn 0.040409 0.026044 -0.998844
vn 0.013485 0.049135 -0.998701
vn 0.034929 -0.010789 -0.999332
vn -0.012492 -0.035022 -0.999308
vn -0.025041 -0.017516 -0.999533
vn -0.011093 -0.021914 -0.999698
vn 0.123135 0.107648 0.986534
vn 0.182680 0.098294 0.978247
vn 0.153119 -0.010977 0.988147
vn 0.123135 0.107648 0.986534
vn 0.153119 -0.010977 0.988147
vn 0.071575 -0.019917 0.997236
vn 0.044888 0.041518 0.998129
vn 0.033310 0.048277 0.998278
vn 0.071575 -0.019917 0.997236
vn -0.039851 0.026984 0.998841
vn 0.044888 0.041518 0.998129
vn -0.004527 -0.023194 0.999721
vn 0.048235 -0.001394 0.998835
vn -0.039851 0.026984 0.998841
vn -0.021021 -0.038756 0.999028
vn 0.039478 0.007712 0.999191
vn 0.048235 -0.001394 0.998835
vn 0.014686 -0.041068 0.999048
vn -0.028014 0.031447 0.999113
vn 0.039478 0.007712 0.999191
vn -0.005723 -0.049078 0.998779
vn -0.023737 0.045967 0.998661
vn -0.028014 0.031447 0.999113
vn -0.025034 -0.053217 0.998269
vn -0.059370 0.170624 0.983546
vn -0.023737 0.045967 0.998661
vn -0.001570 -0.049381 0.998779
vn -0.199024 0.864872 -0.460854
vn -0.095503 0.745173 -0.659997
vn 0.058279 0.031775 -0.997795
vn -0.060629 0.743927 -0.665505
vn -0.077175 0.701349 -0.708628
vn 0.045703 0.001504 -0.998954
vn -0.167705 0.695042 -0.699137
vn 0.013485 0.049135 -0.998701
vn -0.172193 0.552301 -0.815667
vn 0.050629 0.614631 -0.787188
vn 0.217059 0.706323 -0.673790
vn 0.013485 0.049135 -0.998701
vn -0.066990 0.106807 -0.992020
vn 0.035603 -0.012789 -0.999284
vn 0.034929 -0.010789 -0.999332
vn 0.469944 0.597877 -0.649381
vn -0.066990 0.106807 -0.992020
vn 0.013485 0.049135 -0.998701
vn -0.167705 0.695042 -0.699137
vn 0.050629 0.614631 -0.787188
vn 0.013485 0.049135 -0.998701
vn -0.199024 0.864872 -0.460854
vn -0.226989 0.739184 -0.634101
vn -0.104217 0.704551 0.701959
vn 0.160405 0.701114 -0.694773
vn 0.195502 0.777010 -0.598360
vn 0.058279 0.031775 -0.997795
vn -0.059370 0.170624 0.983546
vn 0.105207 0.118853 0.987322
vn 0.318766 0.768955 0.554163
vn 0.105207 0.118853 0.987322
vn 0.100230 0.639888 0.761904
vn 0.318766 0.768955 0.554163
vn -0.095503 0.745173 -0.659997
vn -0.012746 0.804506 -0.593807
vn 0.157838 0.327255 -0.931661
vn 0.352547 0.651686 -0.671577
vn 0.056433 0.037758 -0.997692
vn -0.085475 0.334529 -0.938501
vn -0.354903 0.077183 -0.931712
vn -0.536390 0.648946 -0.539588
vn -0.013297 0.790987 -0.611689
vn 0.029615 0.998214 0.051878
vn 0.163223 0.774570 -0.611065
vn -0.012746 0.804506 -0.593807
vn -0.012746 0.804506 -0.593807
vn 0.163223 0.774570 -0.611065
vn 0.083372 0.361351 -0.928695
vn 0.019568 0.063411 -0.997796
vn 0.040409 0.026044 -0.998844
vn 0.006680 -0.013173 -0.999891
vn 0.163223 0.774570 -0.611065
vn 0.214881 0.684717 -0.696411
vn 0.040409 0.026044 -0.998844
vn 0.163223 0.774570 -0.611065
vn 0.019568 0.063411 -0.997796
vn 0.083372 0.361351 -0.928695
vn 0.019568 0.063411 -0.997796
vn -0.012492 -0.035022 -0.999308
vn 0.157838 0.327255 -0.931661
vn -0.012492 -0.035022 -0.999308
vn 0.019568 0.063411 -0.997796
vn -0.025041 -0.017516 -0.999533
vn -0.012746 0.804506 -0.593807
vn 0.083372 0.361351 -0.928695
vn 0.157838 0.327255 -0.931661
vn -0.095503 0.745173 -0.659997
vn 0.157838 0.327255 -0.931661
vn -0.012492 -0.035022 -0.999308
vn -0.095503 0.745173 -0.659997
vn -0.199024 0.864872 -0.460854
vn -0.104217 0.704551 0.701959
vn -0.226989 0.739184 -0.634101
vn -0.199024 0.864872 -0.460854
vn 0.058279 0.031775 -0.997795
vn 0.287619 0.858993 -0.423564
vn 0.341348 0.570786 0.746783
vn 0.122228 0.708878 0.694660
vn -0.105993 -0.039833 0.993569
vn -0.323044 -0.012111 0.946306
vn 0.105207 0.118853 0.987322
vn -0.289510 0.652226 -0.700561
vn -0.085475 0.334529 -0.938501
vn -0.354903 0.077183 -0.931712
vn 0.217059 0.706323 -0.673790
vn 0.318766 0.768955 0.554163
vn 0.100230 0.639888 0.761904
vn 0.050629 0.614631 -0.787188
vn 0.218250 0.832166 0.509772
vn 0.318766 0.768955 0.554163
vn -0.167705 0.695042 -0.699137
vn -0.328063 0.911704 0.247325
vn 0.218250 0.832166 0.509772
vn -0.077175 0.701349 -0.708628
vn -0.207172 0.724026 0.657926
vn -0.286387 0.665649 0.689125
vn 0.352547 0.651686 -0.671577
vn 0.122228 0.708878 0.694660
vn -0.139886 0.736764 0.661521
vn 0.099705 0.707476 0.699669
vn -0.013297 0.790987 -0.611689
vn -0.536390 0.648946 -0.539588
vn 0.157488 0.826287 0.540783
vn -0.289510 0.652226 -0.700561
vn -0.013297 0.790987 -0.611689
vn -0.260650 0.627381 0.733795
vn -0.525307 0.772104 -0.357643
vn -0.289510 0.652226 -0.700561
vn 0.341348 0.570786 0.746783
vn 0.287619 0.858993 -0.423564
vn -0.525307 0.772104 -0.357643
vn -0.060629 0.743927 -0.665505
vn -0.139886 0.736764 0.661521
vn -0.207172 0.724026 0.657926
vn -0.172193 0.552301 -0.815667
vn -0.336833 0.676986 0.654396
vn -0.328063 0.911704 0.247325
vn 0.160405 0.701114 -0.694773
vn -0.286387 0.665649 0.689125
vn -0.084954 0.621152 0.779072
vn -0.104217 0.704551 0.701959
vn -0.226989 0.739184 -0.634101
vn -0.084954 0.621152 0.779072
vn 0.214881 0.684717 -0.696411
vn 0.171158 0.578360 0.797625
vn -0.336833 0.676986 0.654396
vn 0.171158 0.578360 0.797625
vn 0.214881 0.684717 -0.696411
vn 0.163223 0.774570 -0.611065
vn -0.104217 0.704551 0.701959
vn 0.041410 0.610118 0.791228
vn 0.029615 0.998214 0.051878
vn 0.029615 0.998214 0.051878
vn 0.041410 0.610118 0.791228
vn 0.349267 0.837222 0.420799
vn 0.039478 0.007712 0.999191
vn -0.104217 0.704551 0.701959
vn -0.084954 0.621152 0.779072
vn -0.085475 0.334529 -0.938501
vn 0.056433 0.037758 -0.997692
vn 0.004719 -0.046225 -0.998920
vn 0.287619 0.858993 -0.423564
vn -0.085475 0.334529 -0.938501
vn -0.289510 0.652226 -0.700561
vn 0.045703 0.001504 -0.998954
vn -0.077175 0.701349 -0.708628
vn 0.160405 0.701114 -0.694773
vn 0.044888 0.041518 0.998129
vn -0.139886 0.736764 0.661521
vn 0.122228 0.708878 0.694660
vn -0.039851 0.026984 0.998841
vn -0.207172 0.724026 0.657926
vn -0.139886 0.736764 0.661521
vn -0.336833 0.676986 0.654396
vn -0.059370 0.170624 0.983546
vn 0.218250 0.832166 0.509772
vn 0.039478 0.007712 0.999191
vn -0.028014 0.031447 0.999113
vn 0.041410 0.610118 0.791228
vn -0.028014 0.031447 0.999113
vn -0.023737 0.045967 0.998661
vn 0.171158 0.578360 0.797625
vn -0.023737 0.045967 0.998661
vn -0.059370 0.170624 0.983546
vn -0.336833 0.676986 0.654396
vn 0.048235 -0.001394 0.998835
vn -0.286387 0.665649 0.689125
vn -0.207172 0.724026 0.657926
vn 0.033310 0.048277 0.998278
vn -0.260650 0.627381 0.733795
vn 0.157488 0.826287 0.540783
vn 0.123135 0.107648 0.986534
vn 0.099705 0.707476 0.699669
vn -0.468130 0.603174 0.645783
vn 0.004791 -0.032120 -0.999473
vn 0.004719 -0.046225 -0.998920
vn 0.056433 0.037758 -0.997692
vn 0.004791 -0.032120 -0.999473
vn 0.045703 0.001504 -0.998954
vn 0.058279 0.031775 -0.997795
vn 0.034929 -0.010789 -0.999332
vn 0.006680 -0.013173 -0.999891
vn 0.040409 0.026044 -0.998844
vn -0.011093 -0.021914 -0.999698
vn 0.058279 0.031775 -0.997795
vn -0.012492 -0.035022 -0.999308
vn 0.071575 -0.019917 0.997236
vn 0.033310 0.048277 0.998278
vn 0.123135 0.107648 0.986534
vn 0.071575 -0.019917 0.997236
vn -0.004527 -0.023194 0.999721
vn 0.044888 0.041518 0.998129
vn -0.004527 -0.023194 0.999721
vn -0.021021 -0.038756 0.999028
vn -0.039851 0.026984 0.998841
vn -0.021021 -0.038756 0.999028
vn 0.014686 -0.041068 0.999048
vn 0.048235 -0.001394 0.998835
vn 0.014686 -0.041068 0.999048
vn -0.005723 -0.049078 0.998779
vn 0.039478 0.007712 0.999191
vn -0.005723 -0.049078 0.998779
vn -0.025034 -0.053217 0.998269
vn -0.028014 0.031447 0.999113
vn -0.025034 -0.053217 0.998269
vn -0.001570 -0.049381 0.998779
vn -0.023737 0.045967 0.998661
vn -0.001570 -0.049381 0.998779
vn -0.105993 -0.039833 0.993569
vn -0.059370 0.170624 0.983546
vn 0.045703 0.001504 -0.998954
vn 0.056433 0.037758 -0.997692
vn -0.060629 0.743927 -0.665505
vn 0.034929 -0.010789 -0.999332
vn 0.013485 0.049135 -0.998701
vn -0.066990 0.106807 -0.992020
vn 0.013485 0.049135 -0.998701
vn 0.217059 0.706323 -0.673790
vn 0.469944 0.597877 -0.649381
vn 0.318766 0.768955 0.554163
vn 0.218250 0.832166 0.509772
vn -0.059370 0.170624 0.983546
vn -0.085475 0.334529 -0.938501
vn 0.287619 0.858993 -0.423564
vn 0.352547 0.651686 -0.671577
vn 0.006680 -0.013173 -0.999891
vn -0.025041 -0.017516 -0.999533
vn 0.019568 0.063411 -0.997796
vn 0.040409 0.026044 -0.998844
vn 0.019568 0.063411 -0.997796
vn 0.163223 0.774570 -0.611065
vn 0.157838 0.327255 -0.931661
vn 0.083372 0.361351 -0.928695
vn 0.019568 0.063411 -0.997796
vn -0.012492 -0.035022 -0.999308
vn 0.058279 0.031775 -0.997795
vn -0.095503 0.745173 -0.659997
vn -0.104217 0.704551 0.701959
vn 0.029615 0.998214 0.051878
vn -0.095503 0.745173 -0.659997
vn 0.013485 0.049135 -0.998701
vn 0.040409 0.026044 -0.998844
vn -0.172193 0.552301 -0.815667
# 408 vertex normals

vt 0.080847 0.475528 0.000000
vt 0.102983 0.480614 0.000000
vt 0.098789 0.546436 0.000000
vt 0.078087 0.539567 0.000000
vt 0.659813 0.048517 0.000000
vt 0.666278 0.417955 0.000000
vt 0.598974 0.416972 0.000000
vt 0.622757 0.049187 0.000000
vt 0.609532 0.965229 0.000000
vt 0.669673 0.931469 0.000000
vt 0.023741 0.544666 0.000000
vt 0.036768 0.546891 0.000000
vt 0.646259 0.483237 0.000000
vt 0.668704 0.476233 0.000000
vt 0.665956 0.546671 0.000000
vt 0.648609 0.543335 0.000000
vt 0.626680 0.487253 0.000000
vt 0.631391 0.546476 0.000000
vt 0.608526 0.491683 0.000000
vt 0.603436 0.541240 0.000000
vt 0.218920 0.478577 0.000000
vt 0.240369 0.475882 0.000000
vt 0.260587 0.552585 0.000000
vt 0.230368 0.551912 0.000000
vt 0.137210 0.480920 0.000000
vt 0.157427 0.548910 0.000000
vt 0.003162 0.548915 0.000000
vt 0.002901 0.476709 0.000000
vt 0.021875 0.478012 0.000000
vt 0.041490 0.481382 0.000000
vt 0.053354 0.538446 0.000000
vt 0.060990 0.475412 0.000000
vt 0.584772 0.479638 0.000000
vt 0.587543 0.544760 0.000000
vt 0.313863 0.475788 0.000000
vt 0.284001 0.546365 0.000000
vt 0.332014 0.476990 0.000000
vt 0.305995 0.545499 0.000000
vt 0.515614 0.471605 0.000000
vt 0.526201 0.543722 0.000000
vt 0.409893 0.476082 0.000000
vt 0.496862 0.485998 0.000000
vt 0.508559 0.540931 0.000000
vt 0.438080 0.509941 0.000000
vt 0.447790 0.535294 0.000000
vt 0.365034 0.544292 0.000000
vt 0.292854 0.364553 0.000000
vt 0.340720 0.387820 0.000000
vt 0.531554 0.558962 0.000000
vt 0.659822 0.558907 0.000000
vt 0.545061 0.918922 0.000000
vt 0.374180 0.927144 0.000000
vt 0.418175 0.926985 0.000000
vt 0.142327 0.934413 0.000000
vt 0.060972 0.404857 0.000000
vt 0.032644 0.421244 0.000000
vt 0.118577 0.393382 0.000000
vt 0.193266 0.383575 0.000000
vt 0.425446 0.381774 0.000000
vt 0.517393 0.373398 0.000000
vt 0.010742 0.420187 0.000000
vt 0.418691 0.559253 0.000000
vt 0.331235 0.560149 0.000000
vt 0.041783 0.934244 0.000000
vt 0.055850 0.566294 0.000000
vt 0.141247 0.565549 0.000000
vt 0.256269 0.929619 0.000000
vt 0.232475 0.563085 0.000000
vt 0.012305 0.052437 0.000000
vt 0.094382 0.052218 0.000000
vt 0.144709 0.051450 0.000000
vt 0.251272 0.050072 0.000000
vt 0.304666 0.048841 0.000000
vt 0.410241 0.048476 0.000000
vt 0.463244 0.049828 0.000000
vt 0.550255 0.050428 0.000000
vt 0.342868 0.541615 0.000000
vt 0.004673 0.934788 0.000000
vt 0.005178 0.566435 0.000000
vt 0.266358 0.978389 0.000000
vt 0.221979 0.970279 0.000000
vt 0.221757 0.932569 0.000000
vt 0.571234 0.990013 0.000000
vt 0.591935 0.996881 0.000000
vt 0.646281 0.991783 0.000000
vt 0.633255 0.989558 0.000000
vt 0.004066 0.989777 0.000000
vt 0.021414 0.993114 0.000000
vt 0.038632 0.989973 0.000000
vt 0.066587 0.995209 0.000000
vt 0.409435 0.983864 0.000000
vt 0.439655 0.984537 0.000000
vt 0.512595 0.987539 0.000000
vt 0.666861 0.987534 0.000000
vt 0.616669 0.998003 0.000000
vt 0.082479 0.991688 0.000000
vt 0.386021 0.990084 0.000000
vt 0.364027 0.990950 0.000000
vt 0.143821 0.992727 0.000000
vt 0.161463 0.995518 0.000000
vt 0.222232 1.001155 0.000000
vt 0.304989 0.992157 0.000000
vt 0.327154 0.994834 0.000000
# 103 texture coords

g RootWallLvl1
s 1
f 13/2/1 22/3/2 23/4/3 
f 45/6/4 62/7/5 74/8/6 
f 48/10/7 26/85/8 25/86/9 
f 6/14/10 8/15/11 18/16/12 
f 17/13/13 18/16/14 19/18/15 
f 16/17/16 19/18/17 20/20/18 
f 31/22/19 32/23/20 21/24/21 
f 27/25/22 28/26/23 22/3/24 
f 7/27/25 5/28/26 9/29/27 
f 26/11/28 9/29/29 10/30/30 
f 25/12/31 10/30/32 11/32/33 
f 24/31/34 11/32/35 12/1/36 
f 14/21/37 21/24/38 28/26/39 
f 15/19/40 20/20/41 30/34/42 
f 33/35/43 34/36/44 32/23/45 
f 33/35/46 42/38/47 34/36/48 
f 29/33/49 30/34/50 36/40/51 
f 37/41/52 35/39/53 38/42/54 
f 39/43/55 38/42/56 35/39/57 
f 38/42/58 39/43/59 43/44/60 
f 77/45/61 40/46/62 43/44/63 
f 33/35/64 58/47/65 59/48/66 
f 63/49/67 3/50/68 49/9/69 
f 25/86/70 24/95/71 23/84/72 
f 22/83/73 28/93/74 50/51/75 
f 32/91/76 52/52/77 51/53/78 
f 34/97/79 42/98/80 52/52/81 
f 36/99/82 30/96/83 53/54/84 
f 13/2/85 12/1/86 54/55/87 
f 10/30/88 9/29/89 55/56/90 
f 13/2/91 54/55/92 56/57/93 
f 27/25/94 56/57/95 57/58/96 
f 33/35/97 31/22/98 58/47/99 
f 16/17/100 15/19/101 29/33/102 
f 37/41/103 41/37/104 59/48/105 
f 35/39/106 37/41/107 60/59/108 
f 29/33/109 35/39/110 61/60/111 
f 14/21/112 57/58/113 58/47/114 
f 10/30/115 55/56/116 54/55/117 
f 12/1/118 11/32/119 54/55/120 
f 5/28/121 46/61/122 55/56/123 
f 3/50/124 48/10/125 49/9/126 
f 50/51/127 51/53/128 64/62/129 
f 52/52/130 66/63/131 64/62/132 
f 53/54/133 75/64/134 76/65/135 
f 82/67/136 79/68/137 66/63/138 
f 55/56/139 46/61/140 1/69/141 
f 55/56/142 1/69/143 67/70/144 
f 56/57/145 54/55/146 67/70/147 
f 57/58/148 56/57/149 68/71/150 
f 58/47/151 57/58/152 69/72/153 
f 59/48/154 58/47/155 70/73/156 
f 60/59/157 59/48/158 71/74/159 
f 61/60/160 60/59/161 72/75/162 
f 62/7/163 61/60/164 73/76/165 
f 44/103/166 40/102/167 52/52/168 
f 28/93/169 21/92/170 51/53/171 
f 20/90/172 75/64/173 30/96/174 
f 19/89/175 18/88/176 75/64/177 
f 47/78/178 4/79/179 76/65/180 
f 8/87/181 47/78/182 75/64/183 
f 20/90/184 19/89/185 75/64/186 
f 44/77/187 42/38/188 41/37/189 
f 32/91/190 34/97/191 52/52/192 
f 62/7/193 45/6/194 17/13/195 
f 45/6/196 6/14/197 17/13/198 
f 40/102/199 77/101/200 81/80/201 
f 22/83/202 50/51/203 49/9/204 
f 48/10/205 7/94/206 26/85/207 
f 43/44/208 39/43/209 77/45/210 
f 77/101/211 39/100/212 80/81/213 
f 78/82/214 53/54/215 65/66/216 
f 39/100/217 36/99/218 53/54/219 
f 39/100/220 78/82/221 80/81/222 
f 78/82/223 82/67/224 81/80/225 
f 82/67/226 78/82/227 79/68/228 
f 77/101/229 80/81/230 81/80/231 
f 40/102/232 81/80/233 82/67/234 
f 40/46/235 44/77/236 41/37/237 
f 42/98/238 44/103/239 52/52/240 
f 23/4/241 12/1/242 13/2/243 
f 74/8/244 2/5/245 45/6/246 
f 25/86/247 49/9/248 48/10/249 
f 18/16/250 17/13/251 6/14/252 
f 19/18/253 16/17/254 17/13/255 
f 20/20/256 15/19/257 16/17/258 
f 21/24/259 14/21/260 31/22/261 
f 22/3/262 13/2/263 27/25/264 
f 9/29/265 26/11/266 7/27/267 
f 10/30/268 25/12/269 26/11/270 
f 11/32/271 24/31/272 25/12/273 
f 12/1/274 23/4/275 24/31/276 
f 28/26/277 27/25/278 14/21/279 
f 30/34/280 29/33/281 15/19/282 
f 32/23/283 31/22/284 33/35/285 
f 41/37/286 42/38/287 33/35/288 
f 36/40/289 35/39/290 29/33/291 
f 35/39/292 36/40/293 39/43/294 
f 41/37/295 37/41/296 43/44/297 
f 43/44/298 37/41/299 38/42/300 
f 59/48/301 41/37/302 33/35/303 
f 49/9/304 50/51/305 63/49/306 
f 23/84/307 49/9/308 25/86/309 
f 51/53/310 21/92/311 32/91/312 
f 56/57/313 27/25/314 13/2/315 
f 57/58/316 14/21/317 27/25/318 
f 29/33/319 62/7/320 16/17/321 
f 59/48/322 60/59/323 37/41/324 
f 60/59/325 61/60/326 35/39/327 
f 61/60/328 62/7/329 29/33/330 
f 58/47/331 31/22/332 14/21/333 
f 54/55/334 11/32/335 10/30/336 
f 55/56/337 9/29/338 5/28/339 
f 64/62/340 63/49/341 50/51/342 
f 64/62/343 51/53/344 52/52/345 
f 76/65/346 65/66/347 53/54/348 
f 66/63/349 52/52/350 82/67/351 
f 67/70/352 54/55/353 55/56/354 
f 67/70/355 68/71/356 56/57/357 
f 68/71/358 69/72/359 57/58/360 
f 69/72/361 70/73/362 58/47/363 
f 70/73/364 71/74/365 59/48/366 
f 71/74/367 72/75/368 60/59/369 
f 72/75/370 73/76/371 61/60/372 
f 73/76/373 74/8/374 62/7/375 
f 51/53/376 50/51/377 28/93/378 
f 76/65/379 75/64/380 47/78/381 
f 75/64/382 18/88/383 8/87/384 
f 17/13/385 16/17/386 62/7/387 
f 49/9/388 23/84/389 22/83/390 
f 65/66/391 79/68/392 78/82/393 
f 53/54/394 78/82/395 39/100/396 
f 81/80/397 80/81/398 78/82/399 
f 82/67/400 52/52/401 40/102/402 
f 41/37/403 43/44/404 40/46/405 
f 75/64/406 53/54/407 30/96/408 
# 0 polygons - 136 triangles

