# 3ds Max Wavefront OBJ Exporter v0.97b - (c)2007 guruware
# File Created: 05.02.2017 22:29:03

#
# object RootPoleLvl1
#

v  5.687820 6.602695 47.805374
v  -32.323517 -1.407260 27.772827
v  21.740936 283.563477 40.806625
v  37.175140 275.732513 25.514572
v  27.698105 235.621216 41.558273
v  44.542068 214.470520 21.256210
v  27.072159 188.606415 42.608902
v  43.336655 170.198853 23.006180
v  15.498932 144.395264 48.910233
v  41.572128 140.466431 24.913147
v  16.617645 53.160694 52.922470
v  39.652695 58.593384 22.304749
v  -31.470291 142.405457 29.737579
v  -33.722595 55.370773 34.114273
v  -34.793869 188.915070 31.250122
v  -30.485504 240.330933 40.275070
v  -26.575134 270.672119 38.257523
v  26.881348 22.297918 53.220840
v  40.101456 21.361071 19.264496
v  24.356323 -0.608707 39.444382
v  2.297165 -0.950134 38.916458
v  39.453934 0.000016 23.719101
v  44.002365 -0.906957 -27.892517
v  44.514175 23.186449 -24.163284
v  45.276047 63.810524 -21.759979
v  44.152084 139.476746 -24.188049
v  44.362106 173.399017 -26.015350
v  42.876389 218.425507 -34.105881
v  -4.457458 293.142761 -47.222275
v  -37.375565 272.907379 24.404663
v  22.448410 291.847443 26.245651
v  -19.662903 288.396698 28.362198
v  -45.276047 241.691681 25.480225
v  -22.130173 295.364960 23.015106
v  16.063278 292.345428 -1.912262
v  -35.521439 272.500427 -42.829987
v  -19.223389 286.641235 -40.781418
v  -40.424957 273.345551 -7.817871
v  -23.128647 289.548492 -5.746109
v  32.826279 284.534607 15.753891
v  39.162155 278.819366 -35.490921
v  43.523514 263.324402 -31.502884
v  -41.826004 239.921356 -41.710419
v  -41.657883 240.513794 -6.409683
v  -41.160233 188.960693 -35.217010
v  -38.205627 137.273041 -29.489410
v  -36.894318 51.884197 -31.612625
v  -38.105911 -0.309846 -30.622528
v  -11.866348 265.028656 -49.143967
v  38.151886 263.543335 -42.782089
v  35.632156 218.729462 -44.660034
v  36.952347 173.126801 -40.975754
v  36.688065 139.429047 -40.820770
v  36.802307 64.162254 -36.750229
v  37.097885 25.556644 -38.153519
v  30.416458 -0.781713 -37.001480
v  -12.413940 218.335602 -49.032089
v  -15.477539 187.630981 -53.220840
v  -14.207855 137.693817 -49.116257
v  -14.307678 50.315716 -44.739441
v  -15.828781 -1.223768 -41.098724
# 61 vertices

vn 0.257647 0.032562 0.965690
vn -0.800125 -0.018490 0.599548
vn -0.824389 -0.090726 0.558705
vn 0.321614 0.467904 0.823183
vn 0.455488 0.057605 0.888376
vn 0.950888 0.033730 0.307693
vn 0.455488 0.057605 0.888376
vn 0.385440 0.018281 0.922552
vn 0.940373 -0.016049 0.339765
vn 0.385440 0.018281 0.922552
vn 0.178163 0.016461 0.983863
vn 0.904914 -0.037241 0.423962
vn 0.178163 0.016461 0.983863
vn 0.257647 0.032562 0.965690
vn 0.922909 -0.002359 0.385010
vn 0.178163 0.016461 0.983863
vn -0.802725 -0.016978 0.596108
vn -0.800125 -0.018490 0.599548
vn 0.178163 0.016461 0.983863
vn 0.385440 0.018281 0.922552
vn -0.749504 -0.096242 0.654966
vn 0.385440 0.018281 0.922552
vn 0.455488 0.057605 0.888376
vn -0.412244 0.027106 0.910670
vn 0.455488 0.057605 0.888376
vn 0.321614 0.467904 0.823183
vn -0.432227 0.260528 0.863311
vn 0.257647 0.032562 0.965690
vn 0.509454 -0.052590 0.858889
vn 0.966556 0.029138 0.254795
vn 0.257647 0.032562 0.965690
vn -0.192507 -0.387001 0.901760
vn 0.509454 -0.052590 0.858889
vn -0.192507 -0.387001 0.901760
vn -0.824389 -0.090726 0.558705
vn -0.136960 -0.702848 0.698030
vn -0.192507 -0.387001 0.901760
vn -0.136960 -0.702848 0.698030
vn 0.421868 -0.518448 0.743800
vn 0.509454 -0.052590 0.858889
vn 0.421868 -0.518448 0.743800
vn 0.943213 -0.089675 0.319856
vn 0.966556 0.029138 0.254795
vn 0.943213 -0.089675 0.319856
vn 0.882152 0.053288 -0.467940
vn 0.966556 0.029138 0.254795
vn 0.972454 -0.045123 -0.228685
vn 0.982754 0.006648 -0.184797
vn 0.922909 -0.002359 0.385010
vn 0.982754 0.006648 -0.184797
vn 0.983183 -0.011556 -0.182258
vn 0.904914 -0.037241 0.423962
vn 0.983183 -0.011556 -0.182258
vn 0.978964 -0.013012 -0.203620
vn 0.940373 -0.016049 0.339765
vn 0.978964 -0.013012 -0.203620
vn 0.953810 0.012918 -0.300132
vn -0.274380 0.882302 0.382439
vn 0.218535 0.974715 -0.046605
vn -0.456712 0.882435 -0.112796
vn -0.412244 0.027106 0.910670
vn -0.432227 0.260528 0.863311
vn -0.855586 0.383007 0.348250
vn 0.321614 0.467904 0.823183
vn 0.339867 0.903182 0.262208
vn -0.058530 0.649942 0.757727
vn -0.412244 0.027106 0.910670
vn -0.933012 0.049596 0.356411
vn -0.749504 -0.096242 0.654966
vn -0.432227 0.260528 0.863311
vn -0.058530 0.649942 0.757727
vn -0.274380 0.882302 0.382439
vn -0.058530 0.649942 0.757727
vn 0.339867 0.903182 0.262208
vn 0.218535 0.974715 -0.046605
vn -0.488074 0.725750 -0.484842
vn -0.698659 0.369767 -0.612494
vn -0.907878 0.415405 -0.056527
vn -0.855586 0.383007 0.348250
vn -0.274380 0.882302 0.382439
vn -0.456712 0.882435 -0.112796
vn 0.218535 0.974715 -0.046605
vn 0.339867 0.903182 0.262208
vn 0.731100 0.679545 0.060915
vn 0.731100 0.679545 0.060915
vn 0.685278 0.560493 -0.465019
vn 0.218535 0.974715 -0.046605
vn 0.883895 0.276976 0.376848
vn 0.731100 0.679545 0.060915
vn 0.339867 0.903182 0.262208
vn 0.883895 0.276976 0.376848
vn 0.983686 0.084510 -0.158809
vn 0.685278 0.560493 -0.465019
vn 0.883895 0.276976 0.376848
vn 0.950888 0.033730 0.307693
vn 0.953810 0.012918 -0.300132
vn -0.488074 0.725750 -0.484842
vn -0.456712 0.882435 -0.112796
vn 0.218535 0.974715 -0.046605
vn -0.088714 0.750493 -0.654897
vn 0.218535 0.974715 -0.046605
vn 0.685278 0.560493 -0.465019
vn -0.698659 0.369767 -0.612494
vn -0.806110 0.058310 -0.588886
vn -0.995417 0.047900 -0.082772
vn -0.907878 0.415405 -0.056527
vn -0.995417 0.047900 -0.082772
vn -0.933012 0.049596 0.356411
vn -0.933012 0.049596 0.356411
vn -0.995417 0.047900 -0.082772
vn -0.902747 -0.089978 -0.420655
vn -0.806110 0.058310 -0.588886
vn -0.902747 -0.089978 -0.420655
vn -0.995417 0.047900 -0.082772
vn -0.802725 -0.016978 0.596108
vn -0.749504 -0.096242 0.654966
vn -0.902747 -0.089978 -0.420655
vn -0.802725 -0.016978 0.596108
vn -0.928793 -0.055118 -0.366477
vn -0.877573 -0.003496 -0.479431
vn -0.824389 -0.090726 0.558705
vn -0.800125 -0.018490 0.599548
vn -0.877573 -0.003496 -0.479431
vn -0.698659 0.369767 -0.612494
vn -0.488074 0.725750 -0.484842
vn -0.060421 0.082255 -0.994778
vn 0.685278 0.560493 -0.465019
vn 0.983686 0.084510 -0.158809
vn 0.558460 0.150400 -0.815783
vn 0.685278 0.560493 -0.465019
vn 0.558460 0.150400 -0.815783
vn -0.060421 0.082255 -0.994778
vn -0.088714 0.750493 -0.654897
vn -0.060421 0.082255 -0.994778
vn -0.488074 0.725750 -0.484842
vn 0.983686 0.084510 -0.158809
vn 0.953810 0.012918 -0.300132
vn 0.496437 -0.012715 -0.867980
vn 0.953810 0.012918 -0.300132
vn 0.978964 -0.013012 -0.203620
vn 0.614595 -0.021185 -0.788559
vn 0.983183 -0.011556 -0.182258
vn 0.612457 -0.032583 -0.789832
vn 0.614595 -0.021185 -0.788559
vn 0.983183 -0.011556 -0.182258
vn 0.982754 0.006648 -0.184797
vn 0.578200 -0.002511 -0.815891
vn 0.982754 0.006648 -0.184797
vn 0.972454 -0.045123 -0.228685
vn 0.571299 -0.069941 -0.817756
vn 0.972454 -0.045123 -0.228685
vn 0.882152 0.053288 -0.467940
vn 0.370860 -0.041997 -0.927739
vn 0.558460 0.150400 -0.815783
vn 0.496437 -0.012715 -0.867980
vn -0.007302 0.056331 -0.998385
vn -0.060421 0.082255 -0.994778
vn -0.007302 0.056331 -0.998385
vn -0.806110 0.058310 -0.588886
vn -0.806110 0.058310 -0.588886
vn -0.007302 0.056331 -0.998385
vn -0.163664 -0.007914 -0.986484
vn -0.902747 -0.089978 -0.420655
vn -0.163664 -0.007914 -0.986484
vn -0.248616 -0.070044 -0.966066
vn -0.928793 -0.055118 -0.366477
vn -0.248616 -0.070044 -0.966066
vn -0.199580 -0.028633 -0.979463
vn -0.877573 -0.003496 -0.479431
vn -0.199580 -0.028633 -0.979463
vn -0.190667 -0.043278 -0.980700
vn -0.199580 -0.028633 -0.979463
vn 0.571299 -0.069941 -0.817756
vn 0.370860 -0.041997 -0.927739
vn 0.578200 -0.002511 -0.815891
vn 0.571299 -0.069941 -0.817756
vn -0.199580 -0.028633 -0.979463
vn 0.578200 -0.002511 -0.815891
vn -0.199580 -0.028633 -0.979463
vn -0.248616 -0.070044 -0.966066
vn 0.612457 -0.032583 -0.789832
vn -0.248616 -0.070044 -0.966066
vn -0.163664 -0.007914 -0.986484
vn 0.614595 -0.021185 -0.788559
vn -0.163664 -0.007914 -0.986484
vn -0.007302 0.056331 -0.998385
vn -0.824389 -0.090726 0.558705
vn -0.192507 -0.387001 0.901760
vn 0.257647 0.032562 0.965690
vn 0.950888 0.033730 0.307693
vn 0.883895 0.276976 0.376848
vn 0.321614 0.467904 0.823183
vn 0.940373 -0.016049 0.339765
vn 0.950888 0.033730 0.307693
vn 0.455488 0.057605 0.888376
vn 0.904914 -0.037241 0.423962
vn 0.940373 -0.016049 0.339765
vn 0.385440 0.018281 0.922552
vn 0.922909 -0.002359 0.385010
vn 0.904914 -0.037241 0.423962
vn 0.178163 0.016461 0.983863
vn -0.800125 -0.018490 0.599548
vn 0.257647 0.032562 0.965690
vn 0.178163 0.016461 0.983863
vn -0.749504 -0.096242 0.654966
vn -0.802725 -0.016978 0.596108
vn 0.178163 0.016461 0.983863
vn -0.412244 0.027106 0.910670
vn -0.749504 -0.096242 0.654966
vn 0.385440 0.018281 0.922552
vn -0.432227 0.260528 0.863311
vn -0.412244 0.027106 0.910670
vn 0.455488 0.057605 0.888376
vn 0.966556 0.029138 0.254795
vn 0.922909 -0.002359 0.385010
vn 0.257647 0.032562 0.965690
vn 0.421868 -0.518448 0.743800
vn 0.509454 -0.052590 0.858889
vn -0.192507 -0.387001 0.901760
vn 0.943213 -0.089675 0.319856
vn 0.966556 0.029138 0.254795
vn 0.509454 -0.052590 0.858889
vn 0.882152 0.053288 -0.467940
vn 0.972454 -0.045123 -0.228685
vn 0.966556 0.029138 0.254795
vn 0.982754 0.006648 -0.184797
vn 0.922909 -0.002359 0.385010
vn 0.966556 0.029138 0.254795
vn 0.983183 -0.011556 -0.182258
vn 0.904914 -0.037241 0.423962
vn 0.922909 -0.002359 0.385010
vn 0.978964 -0.013012 -0.203620
vn 0.940373 -0.016049 0.339765
vn 0.904914 -0.037241 0.423962
vn 0.953810 0.012918 -0.300132
vn 0.950888 0.033730 0.307693
vn 0.940373 -0.016049 0.339765
vn -0.855586 0.383007 0.348250
vn -0.933012 0.049596 0.356411
vn -0.412244 0.027106 0.910670
vn -0.058530 0.649942 0.757727
vn -0.432227 0.260528 0.863311
vn 0.321614 0.467904 0.823183
vn -0.274380 0.882302 0.382439
vn -0.855586 0.383007 0.348250
vn -0.432227 0.260528 0.863311
vn 0.218535 0.974715 -0.046605
vn -0.274380 0.882302 0.382439
vn -0.058530 0.649942 0.757727
vn -0.907878 0.415405 -0.056527
vn -0.456712 0.882435 -0.112796
vn -0.488074 0.725750 -0.484842
vn -0.456712 0.882435 -0.112796
vn -0.907878 0.415405 -0.056527
vn -0.855586 0.383007 0.348250
vn 0.339867 0.903182 0.262208
vn 0.321614 0.467904 0.823183
vn 0.883895 0.276976 0.376848
vn 0.685278 0.560493 -0.465019
vn 0.731100 0.679545 0.060915
vn 0.883895 0.276976 0.376848
vn 0.953810 0.012918 -0.300132
vn 0.983686 0.084510 -0.158809
vn 0.883895 0.276976 0.376848
vn 0.218535 0.974715 -0.046605
vn -0.088714 0.750493 -0.654897
vn -0.488074 0.725750 -0.484842
vn -0.995417 0.047900 -0.082772
vn -0.907878 0.415405 -0.056527
vn -0.698659 0.369767 -0.612494
vn -0.933012 0.049596 0.356411
vn -0.855586 0.383007 0.348250
vn -0.907878 0.415405 -0.056527
vn -0.902747 -0.089978 -0.420655
vn -0.749504 -0.096242 0.654966
vn -0.933012 0.049596 0.356411
vn -0.902747 -0.089978 -0.420655
vn -0.928793 -0.055118 -0.366477
vn -0.802725 -0.016978 0.596108
vn -0.877573 -0.003496 -0.479431
vn -0.800125 -0.018490 0.599548
vn -0.802725 -0.016978 0.596108
vn -0.877573 -0.003496 -0.479431
vn -0.872194 0.010144 -0.489055
vn -0.824389 -0.090726 0.558705
vn -0.060421 0.082255 -0.994778
vn -0.088714 0.750493 -0.654897
vn 0.685278 0.560493 -0.465019
vn 0.496437 -0.012715 -0.867980
vn 0.558460 0.150400 -0.815783
vn 0.983686 0.084510 -0.158809
vn 0.614595 -0.021185 -0.788559
vn 0.496437 -0.012715 -0.867980
vn 0.953810 0.012918 -0.300132
vn 0.614595 -0.021185 -0.788559
vn 0.978964 -0.013012 -0.203620
vn 0.983183 -0.011556 -0.182258
vn 0.578200 -0.002511 -0.815891
vn 0.612457 -0.032583 -0.789832
vn 0.983183 -0.011556 -0.182258
vn 0.571299 -0.069941 -0.817756
vn 0.578200 -0.002511 -0.815891
vn 0.982754 0.006648 -0.184797
vn 0.370860 -0.041997 -0.927739
vn 0.571299 -0.069941 -0.817756
vn 0.972454 -0.045123 -0.228685
vn -0.007302 0.056331 -0.998385
vn -0.060421 0.082255 -0.994778
vn 0.558460 0.150400 -0.815783
vn -0.806110 0.058310 -0.588886
vn -0.698659 0.369767 -0.612494
vn -0.060421 0.082255 -0.994778
vn -0.163664 -0.007914 -0.986484
vn -0.902747 -0.089978 -0.420655
vn -0.806110 0.058310 -0.588886
vn -0.248616 -0.070044 -0.966066
vn -0.928793 -0.055118 -0.366477
vn -0.902747 -0.089978 -0.420655
vn -0.199580 -0.028633 -0.979463
vn -0.877573 -0.003496 -0.479431
vn -0.928793 -0.055118 -0.366477
vn -0.190667 -0.043278 -0.980700
vn -0.872194 0.010144 -0.489055
vn -0.877573 -0.003496 -0.479431
vn 0.370860 -0.041997 -0.927739
vn -0.190667 -0.043278 -0.980700
vn -0.199580 -0.028633 -0.979463
vn -0.248616 -0.070044 -0.966066
vn 0.612457 -0.032583 -0.789832
vn 0.578200 -0.002511 -0.815891
vn -0.163664 -0.007914 -0.986484
vn 0.614595 -0.021185 -0.788559
vn 0.612457 -0.032583 -0.789832
vn -0.007302 0.056331 -0.998385
vn 0.496437 -0.012715 -0.867980
vn 0.614595 -0.021185 -0.788559
# 336 vertex normals

vt 0.701449 0.883720 0.000000
vt 0.695099 0.930300 0.000000
vt 0.990797 0.844575 0.000000
vt 0.981529 0.820601 0.000000
vt 0.939872 0.843014 0.000000
vt 0.916705 0.816742 0.000000
vt 0.890556 0.847923 0.000000
vt 0.870314 0.821041 0.000000
vt 0.844809 0.862816 0.000000
vt 0.839268 0.824733 0.000000
vt 0.749533 0.867536 0.000000
vt 0.753083 0.826539 0.000000
vt 0.846502 0.918486 0.000000
vt 0.754777 0.923358 0.000000
vt 0.895781 0.916041 0.000000
vt 0.949398 0.903149 0.000000
vt 0.981164 0.898538 0.000000
vt 0.717963 0.862525 0.000000
vt 0.713312 0.825717 0.000000
vt 0.692186 0.859737 0.000000
vt 0.690431 0.888138 0.000000
vt 0.691019 0.833101 0.000000
vt 0.688368 0.776326 0.000000
vt 0.713885 0.778774 0.000000
vt 0.756811 0.778435 0.000000
vt 0.836229 0.771991 0.000000
vt 0.871749 0.768373 0.000000
vt 0.918759 0.757763 0.000000
vt 0.986790 0.084765 0.000000
vt 0.984619 0.919110 0.000000
vt 0.915751 0.035481 0.000000
vt 0.900205 0.078922 0.000000
vt 0.951618 0.922930 0.000000
vt 0.906929 0.080354 0.000000
vt 0.944265 0.049260 0.000000
vt 0.969593 0.126377 0.000000
vt 0.973860 0.100920 0.000000
vt 0.929226 0.120334 0.000000
vt 0.935202 0.092902 0.000000
vt 0.929637 0.024423 0.000000
vt 0.987956 0.029735 0.000000
vt 0.987450 0.009576 0.000000
vt 0.952609 0.993289 0.000000
vt 0.952070 0.955563 0.000000
vt 0.898615 0.988452 0.000000
vt 0.844305 0.983734 0.000000
vt 0.754578 0.993313 0.000000
vt 0.698912 0.994599 0.000000
vt 0.964263 0.690915 0.000000
vt 0.965010 0.745094 0.000000
vt 0.918357 0.744391 0.000000
vt 0.870780 0.750529 0.000000
vt 0.835408 0.752445 0.000000
vt 0.756325 0.759666 0.000000
vt 0.715808 0.762280 0.000000
vt 0.687824 0.758685 0.000000
vt 0.914919 0.692606 0.000000
vt 0.882627 0.691997 0.000000
vt 0.830287 0.697119 0.000000
vt 0.738390 0.704976 0.000000
vt 0.684002 0.708283 0.000000
vt 0.994107 0.697679 0.000000
vt 0.970943 0.664141 0.000000
vt 0.987452 0.680121 0.000000
vt 0.981793 0.747793 0.000000
vt 0.936316 0.658981 0.000000
vt 0.881923 0.658879 0.000000
vt 0.826679 0.663865 0.000000
vt 0.737372 0.676879 0.000000
vt 0.682510 0.681775 0.000000
vt 0.898336 0.029688 0.000000
vt 0.876338 0.086226 0.000000
vt 0.891730 0.105841 0.000000
vt 0.987375 0.993431 0.000000
vt 0.986832 0.955086 0.000000
vt 0.920367 0.011357 0.000000
vt 0.966269 0.758405 0.000000
# 77 texture coords

g RootPoleLvl1
s 1
f 11/11/1 14/14/2 2/2/3 
f 3/3/4 5/5/5 6/6/6 
f 5/5/7 7/7/8 8/8/9 
f 7/7/10 9/9/11 10/10/12 
f 9/9/13 11/11/14 12/12/15 
f 9/9/16 13/13/17 14/14/18 
f 9/9/19 7/7/20 15/15/21 
f 7/7/22 5/5/23 16/16/24 
f 5/5/25 3/3/26 17/17/27 
f 11/11/28 18/18/29 19/19/30 
f 11/11/31 1/1/32 18/18/33 
f 1/1/34 2/2/35 21/21/36 
f 1/1/37 21/21/38 20/20/39 
f 18/18/40 20/20/41 22/22/42 
f 19/19/43 22/22/44 23/23/45 
f 19/19/46 24/24/47 25/25/48 
f 12/12/49 25/25/50 26/26/51 
f 10/10/52 26/26/53 27/27/54 
f 8/8/55 27/27/56 28/28/57 
f 34/34/58 35/35/59 39/39/60 
f 16/16/61 17/17/62 30/30/63 
f 3/71/64 31/31/65 32/32/66 
f 16/16/67 33/33/68 15/15/69 
f 17/72/70 32/32/71 34/34/72 
f 32/32/73 31/31/74 35/35/75 
f 37/37/76 36/36/77 38/38/78 
f 30/73/79 34/34/80 39/39/81 
f 35/35/82 31/31/83 40/40/84 
f 40/40/85 41/41/86 35/35/87 
f 4/76/88 40/40/89 31/31/90 
f 4/76/91 42/42/92 41/41/93 
f 4/4/94 6/6/95 28/28/96 
f 37/37/97 39/39/98 35/35/99 
f 29/29/100 35/35/101 41/41/102 
f 36/74/103 43/43/104 44/44/105 
f 38/75/106 44/44/107 33/33/108 
f 33/33/109 44/44/110 45/45/111 
f 43/43/112 45/45/113 44/44/114 
f 13/13/115 15/15/116 45/45/117 
f 13/13/118 46/46/119 47/47/120 
f 2/2/121 14/14/122 47/47/123 
f 36/63/124 37/64/125 49/49/126 
f 41/65/127 42/77/128 50/50/129 
f 41/65/130 50/50/131 49/49/132 
f 29/62/133 49/49/134 37/64/135 
f 42/77/136 28/28/137 51/51/138 
f 28/28/139 27/27/140 52/52/141 
f 26/26/142 53/53/143 52/52/144 
f 26/26/145 25/25/146 54/54/147 
f 25/25/148 24/24/149 55/55/150 
f 24/24/151 23/23/152 56/56/153 
f 50/50/154 51/51/155 57/57/156 
f 49/49/157 57/57/158 43/66/159 
f 43/66/160 57/57/161 58/58/162 
f 45/67/163 58/58/164 59/59/165 
f 46/68/166 59/59/167 60/60/168 
f 47/69/169 60/60/170 61/61/171 
f 60/60/172 55/55/173 56/56/174 
f 54/54/175 55/55/176 60/60/177 
f 54/54/178 60/60/179 59/59/180 
f 53/53/181 59/59/182 58/58/183 
f 52/52/184 58/58/185 57/57/186 
f 2/2/187 1/1/188 11/11/189 
f 6/6/190 4/4/191 3/3/192 
f 8/8/193 6/6/194 5/5/195 
f 10/10/196 8/8/197 7/7/198 
f 12/12/199 10/10/200 9/9/201 
f 14/14/202 11/11/203 9/9/204 
f 15/15/205 13/13/206 9/9/207 
f 16/16/208 15/15/209 7/7/210 
f 17/17/211 16/16/212 5/5/213 
f 19/19/214 12/12/215 11/11/216 
f 20/20/217 18/18/218 1/1/219 
f 22/22/220 19/19/221 18/18/222 
f 23/23/223 24/24/224 19/19/225 
f 25/25/226 12/12/227 19/19/228 
f 26/26/229 10/10/230 12/12/231 
f 27/27/232 8/8/233 10/10/234 
f 28/28/235 6/6/236 8/8/237 
f 30/30/238 33/33/239 16/16/240 
f 32/32/241 17/72/242 3/71/243 
f 34/34/244 30/73/245 17/72/246 
f 35/35/247 34/34/248 32/32/249 
f 38/38/250 39/39/251 37/37/252 
f 39/39/253 38/38/254 30/73/255 
f 31/31/256 3/71/257 4/76/258 
f 41/41/259 40/40/260 4/76/261 
f 28/28/262 42/77/263 4/4/264 
f 35/35/265 29/29/266 37/37/267 
f 44/44/268 38/75/269 36/74/270 
f 33/33/271 30/30/272 38/75/273 
f 45/45/274 15/15/275 33/33/276 
f 45/45/277 46/46/278 13/13/279 
f 47/47/280 14/14/281 13/13/282 
f 47/47/283 48/48/284 2/2/285 
f 49/49/286 29/62/287 41/65/288 
f 51/51/289 50/50/290 42/77/291 
f 52/52/292 51/51/293 28/28/294 
f 52/52/295 27/27/296 26/26/297 
f 54/54/298 53/53/299 26/26/300 
f 55/55/301 54/54/302 25/25/303 
f 56/56/304 55/55/305 24/24/306 
f 57/57/307 49/49/308 50/50/309 
f 43/66/310 36/63/311 49/49/312 
f 58/58/313 45/67/314 43/66/315 
f 59/59/316 46/68/317 45/67/318 
f 60/60/319 47/69/320 46/68/321 
f 61/61/322 48/70/323 47/69/324 
f 56/56/325 61/61/326 60/60/327 
f 59/59/328 53/53/329 54/54/330 
f 58/58/331 52/52/332 53/53/333 
f 57/57/334 51/51/335 52/52/336 
# 0 polygons - 112 triangles

