# 3ds Max Wavefront OBJ Exporter v0.97b - (c)2007 guruware
# File Created: 05.03.2017 17:39:18

#
# object HedgeWallLvl101
#

v  122.527145 188.006088 34.246033
v  150.976929 188.006088 34.246033
v  122.527145 188.006088 -34.245827
v  150.976929 188.006088 -34.245827
v  110.036880 231.161224 34.246033
v  163.467194 231.161224 34.246033
v  110.036880 231.161224 -34.245827
v  163.467194 231.161224 -34.245827
v  -150.982422 188.006088 34.246033
v  -122.532654 188.006088 34.246033
v  -150.982422 188.006088 -34.245827
v  -122.532654 188.006088 -34.245827
v  -163.472687 231.161224 34.246033
v  -110.042389 231.161224 34.246033
v  -163.472687 231.161224 -34.245827
v  -110.042389 231.161224 -34.245827
v  -14.743469 0.000013 69.368279
v  18.499542 0.000013 69.368271
v  -14.743500 -0.000004 26.205935
v  18.499542 -0.000004 26.205935
v  18.499542 175.534760 41.741196
v  -14.743500 175.534760 41.741196
v  -14.743500 195.429520 26.205935
v  18.499542 108.044876 46.766449
v  18.499542 108.044876 26.205935
v  -14.743500 108.044876 26.205935
v  -14.743500 108.044876 46.766449
v  18.499542 79.836510 62.280945
v  18.499542 76.974594 26.205935
v  -14.743500 76.974594 26.205935
v  -14.743500 79.836510 62.280945
v  18.499542 195.429520 26.205935
v  18.499512 0.000013 -69.368187
v  -14.743500 0.000013 -69.368179
v  18.499542 -0.000004 -26.205849
v  -14.743469 -0.000004 -26.205843
v  -14.743469 175.534760 -41.741104
v  18.499542 175.534760 -41.741112
v  18.499542 195.429520 -26.205849
v  -14.743469 108.044876 -46.766350
v  -14.743469 108.044876 -26.205843
v  18.499542 108.044876 -26.205849
v  18.499542 108.044876 -46.766357
v  -14.743500 79.836510 -62.280853
v  -14.743469 76.974594 -26.205843
v  18.499542 76.974594 -26.205849
v  18.499542 79.836510 -62.280861
v  -14.743469 195.429520 -26.205843
# 48 vertices

vn -0.633583 0.525130 0.568165
vn 0.633583 0.525130 -0.568165
vn -0.633583 0.525130 -0.568165
vn -0.654829 -0.123665 0.745591
vn 0.633583 0.525130 0.568165
vn -0.633583 0.525130 0.568165
vn 0.654829 -0.123665 0.745591
vn 0.633583 0.525130 -0.568165
vn 0.633583 0.525130 0.568165
vn 0.654829 -0.123665 -0.745591
vn -0.633583 0.525130 -0.568165
vn 0.633583 0.525130 -0.568165
vn -0.654829 -0.123665 -0.745591
vn -0.633583 0.525130 0.568165
vn -0.633583 0.525130 -0.568165
vn -0.633583 0.525130 0.568165
vn 0.633583 0.525130 -0.568165
vn -0.633583 0.525130 -0.568165
vn -0.654829 -0.123665 0.745591
vn 0.633583 0.525130 0.568165
vn -0.633583 0.525130 0.568165
vn 0.654829 -0.123665 0.745591
vn 0.633583 0.525130 -0.568165
vn 0.633583 0.525130 0.568165
vn 0.654829 -0.123665 -0.745591
vn -0.633583 0.525130 -0.568165
vn 0.633583 0.525130 -0.568165
vn -0.654829 -0.123665 -0.745591
vn -0.633583 0.525130 0.568165
vn -0.633583 0.525130 -0.568165
vn -0.693717 0.041650 0.719042
vn 0.693717 0.041650 0.719042
vn -0.676322 0.147213 0.721746
vn 0.693717 0.041650 0.719042
vn 1.000000 0.000000 -0.000000
vn 0.676322 0.147213 0.721746
vn -1.000000 0.000000 0.000001
vn -0.693717 0.041650 0.719042
vn -1.000000 -0.000000 0.000000
vn 0.662798 0.192421 0.723652
vn 0.287344 0.434839 0.853433
vn -0.662798 0.192421 0.723652
vn 0.741854 0.130953 0.657650
vn 0.662798 0.192421 0.723652
vn -0.741854 0.130953 0.657650
vn -0.741854 0.130953 0.657650
vn -0.662798 0.192421 0.723652
vn -1.000000 0.000000 -0.000000
vn 0.676322 0.147213 0.721746
vn 0.741854 0.130953 0.657650
vn -0.676322 0.147213 0.721746
vn 1.000000 0.000000 -0.000000
vn 1.000000 0.000000 -0.000000
vn 0.676322 0.147213 0.721746
vn -0.676322 0.147213 0.721746
vn -0.741854 0.130953 0.657650
vn -1.000000 -0.000000 0.000000
vn 0.287344 0.434839 0.853433
vn 0.662798 0.192421 0.723652
vn 1.000000 0.000000 -0.000000
vn 0.693717 0.041650 -0.719042
vn -0.693718 0.041650 -0.719042
vn 0.676322 0.147213 -0.721746
vn -0.693718 0.041650 -0.719042
vn -1.000000 -0.000000 0.000001
vn -0.676322 0.147213 -0.721746
vn 1.000000 0.000000 -0.000001
vn 0.693717 0.041650 -0.719042
vn 1.000000 -0.000000 -0.000000
vn -0.662798 0.192421 -0.723652
vn -0.287344 0.434839 -0.853433
vn 0.662798 0.192421 -0.723652
vn -0.741854 0.130953 -0.657650
vn -0.662798 0.192421 -0.723652
vn 0.741854 0.130953 -0.657650
vn 0.741854 0.130953 -0.657650
vn 0.662798 0.192421 -0.723652
vn 1.000000 0.000000 -0.000000
vn -0.676322 0.147213 -0.721746
vn -0.741854 0.130953 -0.657650
vn 0.676322 0.147213 -0.721746
vn -1.000000 0.000000 0.000001
vn -1.000000 0.000000 0.000000
vn -0.676322 0.147213 -0.721746
vn 0.676322 0.147213 -0.721746
vn 0.741854 0.130953 -0.657650
vn 1.000000 -0.000000 -0.000000
vn -0.287344 0.434839 -0.853433
vn -0.662798 0.192421 -0.723652
vn -1.000000 0.000000 0.000000
vn -0.633583 0.525130 0.568165
vn 0.633583 0.525130 0.568165
vn 0.633583 0.525130 -0.568165
vn -0.654829 -0.123665 0.745591
vn 0.654829 -0.123665 0.745591
vn 0.633583 0.525130 0.568165
vn 0.654829 -0.123665 0.745591
vn 0.654829 -0.123665 -0.745591
vn 0.633583 0.525130 -0.568165
vn 0.654829 -0.123665 -0.745591
vn -0.654829 -0.123665 -0.745591
vn -0.633583 0.525130 -0.568165
vn -0.654829 -0.123665 -0.745591
vn -0.654829 -0.123665 0.745591
vn -0.633583 0.525130 0.568165
vn -0.633583 0.525130 0.568165
vn 0.633583 0.525130 0.568165
vn 0.633583 0.525130 -0.568165
vn -0.654829 -0.123665 0.745591
vn 0.654829 -0.123665 0.745591
vn 0.633583 0.525130 0.568165
vn 0.654829 -0.123665 0.745591
vn 0.654829 -0.123665 -0.745591
vn 0.633583 0.525130 -0.568165
vn 0.654829 -0.123665 -0.745591
vn -0.654829 -0.123665 -0.745591
vn -0.633583 0.525130 -0.568165
vn -0.654829 -0.123665 -0.745591
vn -0.654829 -0.123665 0.745591
vn -0.633583 0.525130 0.568165
vn 0.693717 0.041650 0.719042
vn 0.676322 0.147213 0.721746
vn -0.676322 0.147213 0.721746
vn 1.000000 0.000000 -0.000000
vn 1.000000 0.000000 -0.000000
vn 0.676322 0.147213 0.721746
vn -0.693717 0.041650 0.719042
vn -0.676322 0.147213 0.721746
vn -1.000000 -0.000000 0.000000
vn 0.287344 0.434839 0.853433
vn -0.287344 0.434839 0.853433
vn -0.662798 0.192421 0.723652
vn 0.662798 0.192421 0.723652
vn -0.662798 0.192421 0.723652
vn -0.741854 0.130953 0.657650
vn -0.662798 0.192421 0.723652
vn -0.287344 0.434839 0.853433
vn -1.000000 0.000000 -0.000000
vn 0.741854 0.130953 0.657650
vn -0.741854 0.130953 0.657650
vn -0.676322 0.147213 0.721746
vn 1.000000 0.000000 -0.000000
vn 0.741854 0.130953 0.657650
vn 0.676322 0.147213 0.721746
vn -0.741854 0.130953 0.657650
vn -1.000000 0.000000 -0.000000
vn -1.000000 -0.000000 0.000000
vn 0.662798 0.192421 0.723652
vn 0.741854 0.130953 0.657650
vn 1.000000 0.000000 -0.000000
vn -0.693718 0.041650 -0.719042
vn -0.676322 0.147213 -0.721746
vn 0.676322 0.147213 -0.721746
vn -1.000000 -0.000000 0.000001
vn -1.000000 0.000000 0.000001
vn -0.676322 0.147213 -0.721746
vn 0.693717 0.041650 -0.719042
vn 0.676322 0.147213 -0.721746
vn 1.000000 -0.000000 -0.000000
vn -0.287344 0.434839 -0.853433
vn 0.287344 0.434839 -0.853433
vn 0.662798 0.192421 -0.723652
vn -0.662798 0.192421 -0.723652
vn 0.662798 0.192421 -0.723652
vn 0.741854 0.130953 -0.657650
vn 0.662798 0.192421 -0.723652
vn 0.287344 0.434839 -0.853433
vn 1.000000 0.000000 -0.000000
vn -0.741854 0.130953 -0.657650
vn 0.741854 0.130953 -0.657650
vn 0.676322 0.147213 -0.721746
vn -1.000000 0.000000 0.000000
vn -0.741854 0.130953 -0.657650
vn -0.676322 0.147213 -0.721746
vn 0.741854 0.130953 -0.657650
vn 1.000000 0.000000 -0.000000
vn 1.000000 -0.000000 -0.000000
vn -0.662798 0.192421 -0.723652
vn -0.741854 0.130953 -0.657650
vn -1.000000 0.000000 0.000000
# 180 vertex normals

vt 0.000324 0.731316 0.000000
vt 0.167910 0.731316 0.000000
vt 0.167910 0.868681 0.000000
vt 0.000324 0.868681 0.000000
vt 0.039501 0.603998 0.000000
vt 0.128734 0.603998 0.000000
vt 0.128734 0.995999 0.000000
vt 0.039500 0.995999 0.000000
vt 0.403925 0.995879 0.000000
vt 0.403925 0.871219 0.000000
vt 0.532696 0.871219 0.000000
vt 0.532696 0.995879 0.000000
vt 0.667098 0.871011 0.000000
vt 0.667098 0.995671 0.000000
vt 0.538326 0.995671 0.000000
vt 0.538326 0.871011 0.000000
vt 0.000324 0.731316 0.000000
vt 0.167910 0.731316 0.000000
vt 0.167910 0.868681 0.000000
vt 0.000324 0.868681 0.000000
vt 0.039501 0.603998 0.000000
vt 0.128734 0.603998 0.000000
vt 0.128734 0.995999 0.000000
vt 0.039500 0.995999 0.000000
vt 0.403925 0.995879 0.000000
vt 0.403925 0.871219 0.000000
vt 0.532696 0.871219 0.000000
vt 0.532696 0.995879 0.000000
vt 0.667098 0.871011 0.000000
vt 0.667098 0.995671 0.000000
vt 0.538326 0.995671 0.000000
vt 0.538326 0.871011 0.000000
vt 0.457101 0.011582 0.000000
vt 0.572352 0.011582 0.000000
vt 0.572352 0.202033 0.000000
vt 0.457101 0.202033 0.000000
vt 0.705400 0.012090 0.000000
vt 0.581854 0.012090 0.000000
vt 0.581854 0.218050 0.000000
vt 0.685114 0.225708 0.000000
vt 0.581854 0.012090 0.000000
vt 0.572352 0.455571 0.000000
vt 0.705400 0.012090 0.000000
vt 0.685114 0.225708 0.000000
vt 0.581854 0.218050 0.000000
vt 0.640705 0.301185 0.000000
vt 0.626321 0.481766 0.000000
vt 0.581854 0.534998 0.000000
vt 0.572352 0.535967 0.000000
vt 0.581854 0.301185 0.000000
vt 0.457101 0.535967 0.000000
vt 0.581854 0.301185 0.000000
vt 0.640705 0.301185 0.000000
vt 0.581854 0.534998 0.000000
vt 0.457101 0.455571 0.000000
vt 0.626321 0.481766 0.000000
vt 0.572352 0.295158 0.000000
vt 0.457101 0.295158 0.000000
vt 0.457101 0.011582 0.000000
vt 0.572352 0.011582 0.000000
vt 0.572352 0.202033 0.000000
vt 0.457101 0.202033 0.000000
vt 0.705400 0.012090 0.000000
vt 0.581854 0.012090 0.000000
vt 0.581854 0.218050 0.000000
vt 0.685114 0.225708 0.000000
vt 0.581854 0.012090 0.000000
vt 0.572352 0.455571 0.000000
vt 0.705400 0.012090 0.000000
vt 0.685114 0.225708 0.000000
vt 0.581854 0.218050 0.000000
vt 0.640705 0.301185 0.000000
vt 0.626321 0.481766 0.000000
vt 0.581854 0.534998 0.000000
vt 0.572352 0.535967 0.000000
vt 0.581854 0.301185 0.000000
vt 0.457101 0.535967 0.000000
vt 0.581854 0.301185 0.000000
vt 0.640705 0.301185 0.000000
vt 0.581854 0.534998 0.000000
vt 0.457101 0.455571 0.000000
vt 0.626321 0.481766 0.000000
vt 0.572352 0.295158 0.000000
vt 0.457101 0.295158 0.000000
# 84 texture coords

g HedgeWallLvl101
s 1
f 5/1/1 8/3/2 7/4/3 
f 1/5/4 6/2/5 5/1/6 
f 2/9/7 8/11/8 6/12/9 
f 4/7/10 7/4/11 8/3/12 
f 3/13/13 5/15/14 7/16/15 
f 13/17/16 16/19/17 15/20/18 
f 9/21/19 14/18/20 13/17/21 
f 10/25/22 16/27/23 14/28/24 
f 12/23/25 15/20/26 16/19/27 
f 11/29/28 13/31/29 15/32/30 
f 17/33/31 18/34/32 31/36/33 
f 18/37/34 20/38/35 28/40/36 
f 19/41/37 17/43/38 30/45/39 
f 21/42/40 32/49/41 22/55/42 
f 24/57/43 21/42/44 27/58/45 
f 27/46/46 22/47/47 26/50/48 
f 28/35/49 24/57/50 31/36/51 
f 29/39/52 25/52/53 28/40/54 
f 31/44/55 27/46/56 30/45/57 
f 32/54/58 21/56/59 25/52/60 
f 33/59/61 34/60/62 47/62/63 
f 34/63/64 36/64/65 44/66/66 
f 35/67/67 33/69/68 46/71/69 
f 37/68/70 48/75/71 38/81/72 
f 40/83/73 37/68/74 43/84/75 
f 43/72/76 38/73/77 42/76/78 
f 44/61/79 40/83/80 47/62/81 
f 45/65/82 41/78/83 44/66/84 
f 47/70/85 43/72/86 46/71/87 
f 48/80/88 37/82/89 41/78/90 
f 5/1/91 6/2/92 8/3/93 
f 1/5/94 2/6/95 6/2/96 
f 2/9/97 4/10/98 8/11/99 
f 4/7/100 3/8/101 7/4/102 
f 3/13/103 1/14/104 5/15/105 
f 13/17/106 14/18/107 16/19/108 
f 9/21/109 10/22/110 14/18/111 
f 10/25/112 12/26/113 16/27/114 
f 12/23/115 11/24/116 15/20/117 
f 11/29/118 9/30/119 13/31/120 
f 18/34/121 28/35/122 31/36/123 
f 20/38/124 29/39/125 28/40/126 
f 17/43/127 31/44/128 30/45/129 
f 32/49/130 23/51/131 22/55/132 
f 21/42/133 22/55/134 27/58/135 
f 22/47/136 23/48/137 26/50/138 
f 24/57/139 27/58/140 31/36/141 
f 25/52/142 24/53/143 28/40/144 
f 27/46/145 26/50/146 30/45/147 
f 21/56/148 24/53/149 25/52/150 
f 34/60/151 44/61/152 47/62/153 
f 36/64/154 45/65/155 44/66/156 
f 33/69/157 47/70/158 46/71/159 
f 48/75/160 39/77/161 38/81/162 
f 37/68/163 38/81/164 43/84/165 
f 38/73/166 39/74/167 42/76/168 
f 40/83/169 43/84/170 47/62/171 
f 41/78/172 40/79/173 44/66/174 
f 43/72/175 42/76/176 46/71/177 
f 37/82/178 40/79/179 41/78/180 
# 0 polygons - 60 triangles

#
# object HedgeWallLvl1
#

v  196.853119 61.466488 26.205946
v  196.853119 0.000000 39.462532
v  196.853119 48.433716 39.462524
v  -196.847656 48.433712 39.462524
v  -196.847656 0.000000 39.462532
v  -196.847656 212.589996 26.205938
v  196.853119 212.589996 26.205938
v  -196.847656 61.466488 26.205946
v  -196.847656 212.589996 0.000063
v  196.853119 212.589996 0.000063
v  196.853119 0.000000 -39.462406
v  196.853119 48.433720 -39.462395
v  -196.847656 48.433712 -39.462395
v  -196.847656 0.000000 -39.462406
v  196.853119 61.466488 -26.205818
v  -196.847656 61.466488 -26.205818
v  196.853119 212.589996 -26.205812
v  -196.847656 212.589996 -26.205812
# 18 vertices

vn -0.000000 0.000000 1.000000
vn -0.000000 0.288801 0.957389
vn 0.000000 0.000000 1.000000
vn -0.000000 0.288801 0.957389
vn -0.000000 0.288801 0.957389
vn -0.000000 0.288801 0.957389
vn 0.000000 0.707107 0.707107
vn 0.000000 0.288801 0.957389
vn -0.000000 0.288801 0.957389
vn 0.000000 1.000000 -0.000000
vn 0.000000 0.707107 0.707107
vn 0.000000 1.000000 -0.000000
vn -0.000000 0.000000 -1.000000
vn -0.000000 0.288801 -0.957389
vn -0.000000 0.288801 -0.957389
vn -0.000000 0.288801 -0.957389
vn -0.000000 0.288801 -0.957389
vn 0.000000 0.288801 -0.957389
vn 0.000000 0.707107 -0.707107
vn 0.000000 0.288801 -0.957389
vn 0.000000 0.707107 -0.707107
vn 0.000000 1.000000 -0.000000
vn 0.000000 0.707107 -0.707107
vn 0.000000 0.707107 -0.707107
vn -0.000000 0.000000 1.000000
vn -0.000000 0.288801 0.957389
vn -0.000000 0.288801 0.957389
vn -0.000000 0.288801 0.957389
vn 0.000000 0.288801 0.957389
vn -0.000000 0.288801 0.957389
vn 0.000000 0.707107 0.707107
vn 0.000000 0.707107 0.707107
vn 0.000000 0.288801 0.957389
vn 0.000000 0.707107 0.707107
vn 0.000000 0.707107 0.707107
vn 0.000000 1.000000 -0.000000
vn -0.000000 0.000000 -1.000000
vn 0.000000 0.000000 -1.000000
vn -0.000000 0.288801 -0.957389
vn -0.000000 0.288801 -0.957389
vn -0.000000 0.288801 -0.957389
vn -0.000000 0.288801 -0.957389
vn 0.000000 0.707107 -0.707107
vn -0.000000 0.288801 -0.957389
vn 0.000000 0.288801 -0.957389
vn 0.000000 0.707107 -0.707107
vn 0.000000 1.000000 -0.000000
vn 0.000000 1.000000 -0.000000
# 48 vertex normals

vt 1.000000 0.430222 0.000000
vt 1.000000 0.539143 0.000000
vt -0.000000 0.539143 0.000000
vt -0.000000 0.430222 0.000000
vt 1.000000 0.578695 0.000000
vt -0.000000 0.578695 0.000000
vt -0.000000 1.000000 0.000000
vt 1.000000 1.000000 0.000000
vt 1.000000 0.935765 0.000000
vt -0.000000 0.935765 0.000000
vt 1.000000 0.430222 0.000000
vt 1.000000 0.539143 0.000000
vt -0.000000 0.539143 0.000000
vt -0.000000 0.430222 0.000000
vt 1.000000 0.578695 0.000000
vt -0.000000 0.578695 0.000000
vt 1.000000 0.935765 0.000000
vt -0.000000 0.935765 0.000000
vt -0.000000 1.000000 0.000000
vt 1.000000 1.000000 0.000000
# 20 texture coords

g HedgeWallLvl1
s 1
f 50/85/181 52/87/182 53/88/183 
f 49/89/184 52/87/185 51/86/186 
f 55/93/187 56/90/188 49/89/189 
f 57/91/190 54/94/191 58/92/192 
f 59/95/193 61/97/194 60/96/195 
f 63/99/196 61/97/197 64/100/198 
f 65/101/199 64/100/200 66/102/201 
f 58/104/202 65/101/203 66/102/204 
f 50/85/205 51/86/206 52/87/207 
f 49/89/208 56/90/209 52/87/210 
f 55/93/211 54/94/212 56/90/213 
f 54/94/214 55/93/215 58/92/216 
f 59/95/217 62/98/218 61/97/219 
f 63/99/220 60/96/221 61/97/222 
f 65/101/223 63/99/224 64/100/225 
f 66/102/226 57/103/227 58/104/228 
# 0 polygons - 16 triangles

