# 3ds Max Wavefront OBJ Exporter v0.97b - (c)2007 guruware
# File Created: 02.04.2017 22:54:55

#
# object FirePoleLvl2
#

v  6.698889 7.884016 53.600273
v  -38.069561 -1.680353 31.139410
v  25.605700 338.591858 45.753147
v  43.783577 329.241211 28.607412
v  32.621849 281.345917 46.595909
v  52.460091 256.090698 23.832857
v  31.884630 225.207413 47.773891
v  51.040398 203.227676 25.794956
v  18.254080 172.416641 54.839062
v  48.962196 167.725372 27.933083
v  19.571663 63.477070 59.337654
v  46.701553 69.964027 25.008497
v  -37.064659 170.040695 33.342327
v  -39.717346 66.116035 38.249557
v  -40.979057 225.575974 35.038216
v  -35.904812 286.969604 45.157158
v  -31.299313 323.198792 42.895046
v  31.659899 26.625057 59.672195
v  47.230091 25.506405 21.599710
v  28.686012 -0.726833 44.225773
v  2.705492 -1.134517 43.633854
v  46.467461 0.000019 26.594296
v  51.824448 -1.082961 -31.273607
v  52.427238 27.686016 -27.092323
v  53.324547 76.193611 -24.397692
v  52.000782 166.543625 -27.120090
v  52.248138 207.048874 -29.168894
v  50.498310 260.813202 -38.240147
v  -5.249872 341.245483 -52.946491
v  -44.019688 325.867828 27.362961
v  26.438938 348.483429 29.427111
v  -26.064190 352.683533 25.804964
v  -53.324608 288.594421 28.568901
v  18.918749 349.078033 -2.144064
v  -41.835964 325.381927 -48.021774
v  -22.640678 342.266907 -45.724884
v  -47.611160 326.391052 -8.765542
v  -27.240158 345.738342 -6.442644
v  38.661636 339.751465 17.663555
v  46.123814 332.927124 -39.793079
v  51.260471 314.425201 -35.321617
v  -49.261265 286.480530 -46.766495
v  -49.063255 287.187958 -7.186656
v  -48.477142 225.630447 -39.485966
v  -44.997311 163.912277 -33.064075
v  -43.452892 61.952854 -35.444660
v  -44.879868 -0.369975 -34.334545
v  -13.975809 316.460175 -55.101128
v  44.933952 314.686615 -47.968071
v  41.966301 261.176147 -50.073658
v  43.521175 206.723816 -45.942776
v  43.209915 166.486679 -45.769005
v  43.344467 76.613594 -41.205040
v  43.692589 30.516172 -42.778435
v  35.823433 -0.933412 -41.486748
v  -14.620744 260.705841 -54.975689
v  -18.228945 224.042694 -59.672195
v  -16.733555 164.414703 -55.070057
v  -16.851124 60.079994 -50.162693
v  -18.642626 -1.461253 -46.080654
# 60 vertices

vn 0.254659 0.037645 0.966298
vn -0.799482 -0.020030 0.600356
vn -0.825179 -0.095413 0.556756
vn 0.328571 0.467031 0.820928
vn 0.455882 0.061273 0.887929
vn 0.951111 0.037008 0.306623
vn 0.455882 0.061273 0.887929
vn 0.388274 0.019702 0.921333
vn 0.940553 -0.017674 0.339186
vn 0.388274 0.019702 0.921333
vn 0.177678 0.020654 0.983872
vn 0.904828 -0.040269 0.423868
vn 0.177678 0.020654 0.983872
vn 0.254659 0.037645 0.966298
vn 0.922649 -0.003287 0.385627
vn 0.177678 0.020654 0.983872
vn -0.803089 -0.018315 0.595577
vn -0.799482 -0.020030 0.600356
vn 0.177678 0.020654 0.983872
vn 0.388274 0.019702 0.921333
vn -0.749432 -0.105096 0.653687
vn 0.388274 0.019702 0.921333
vn 0.455882 0.061273 0.887929
vn -0.413375 0.027909 0.910133
vn 0.455882 0.061273 0.887929
vn 0.328571 0.467031 0.820928
vn -0.427507 0.281249 0.859149
vn 0.254659 0.037645 0.966298
vn 0.511862 -0.059814 0.856983
vn 0.966389 0.029602 0.255374
vn 0.254659 0.037645 0.966298
vn -0.196051 -0.405261 0.892932
vn 0.511862 -0.059814 0.856983
vn -0.196051 -0.405261 0.892932
vn -0.825179 -0.095413 0.556756
vn -0.132585 -0.729801 0.670680
vn -0.196051 -0.405261 0.892932
vn -0.132585 -0.729801 0.670680
vn 0.416866 -0.545032 0.727436
vn 0.511862 -0.059814 0.856983
vn 0.416866 -0.545032 0.727436
vn 0.944255 -0.089841 0.316721
vn 0.966389 0.029602 0.255374
vn 0.944255 -0.089841 0.316721
vn 0.880451 0.057817 -0.470599
vn 0.966389 0.029602 0.255374
vn 0.972123 -0.046258 -0.229862
vn 0.982872 0.006898 -0.184162
vn 0.922649 -0.003287 0.385627
vn 0.982872 0.006898 -0.184162
vn 0.983184 -0.012312 -0.182201
vn 0.904828 -0.040269 0.423868
vn 0.983184 -0.012312 -0.182201
vn 0.979140 -0.013654 -0.202728
vn 0.940553 -0.017674 0.339186
vn 0.979140 -0.013654 -0.202728
vn 0.953805 0.013111 -0.300140
vn -0.418771 0.858500 0.295989
vn 0.214326 0.971496 -0.101291
vn -0.435246 0.894216 -0.104594
vn -0.413375 0.027909 0.910133
vn -0.427507 0.281249 0.859149
vn -0.846433 0.405283 0.345393
vn 0.328571 0.467031 0.820928
vn 0.379851 0.890274 0.251247
vn -0.418771 0.858500 0.295989
vn -0.413375 0.027909 0.910133
vn -0.932658 0.052628 0.356904
vn -0.749432 -0.105096 0.653687
vn -0.418771 0.858500 0.295989
vn 0.379851 0.890274 0.251247
vn 0.214326 0.971496 -0.101291
vn -0.346373 0.787431 -0.509880
vn -0.692261 0.388090 -0.608409
vn -0.899213 0.433671 -0.057839
vn -0.846433 0.405283 0.345393
vn -0.418771 0.858500 0.295989
vn -0.435246 0.894216 -0.104594
vn 0.214326 0.971496 -0.101291
vn 0.379851 0.890274 0.251247
vn 0.707967 0.703839 0.058260
vn 0.707967 0.703839 0.058260
vn 0.648125 0.607228 -0.459573
vn 0.214326 0.971496 -0.101291
vn 0.878242 0.296368 0.375309
vn 0.707967 0.703839 0.058260
vn 0.379851 0.890274 0.251247
vn 0.878242 0.296368 0.375309
vn 0.983167 0.092389 -0.157630
vn 0.648125 0.607228 -0.459573
vn 0.878242 0.296368 0.375309
vn 0.951111 0.037008 0.306623
vn 0.953805 0.013111 -0.300140
vn -0.346373 0.787431 -0.509880
vn -0.435246 0.894216 -0.104594
vn 0.214326 0.971496 -0.101291
vn 0.032221 0.629788 -0.776098
vn 0.214326 0.971496 -0.101291
vn 0.648125 0.607228 -0.459573
vn -0.692261 0.388090 -0.608409
vn -0.807326 0.062610 -0.586775
vn -0.995136 0.051073 -0.084232
vn -0.899213 0.433671 -0.057839
vn -0.995136 0.051073 -0.084232
vn -0.932658 0.052628 0.356904
vn -0.932658 0.052628 0.356904
vn -0.995136 0.051073 -0.084232
vn -0.902343 -0.095805 -0.420237
vn -0.807326 0.062610 -0.586775
vn -0.902343 -0.095805 -0.420237
vn -0.995136 0.051073 -0.084232
vn -0.803089 -0.018315 0.595577
vn -0.749432 -0.105096 0.653687
vn -0.902343 -0.095805 -0.420237
vn -0.803089 -0.018315 0.595577
vn -0.928877 -0.059402 -0.365593
vn -0.877350 -0.003493 -0.479838
vn -0.825179 -0.095413 0.556756
vn -0.799482 -0.020030 0.600356
vn -0.877350 -0.003493 -0.479838
vn -0.692261 0.388090 -0.608409
vn -0.346373 0.787431 -0.509880
vn -0.062287 0.094379 -0.993586
vn 0.648125 0.607228 -0.459573
vn 0.983167 0.092389 -0.157630
vn 0.556502 0.161953 -0.814909
vn 0.648125 0.607228 -0.459573
vn 0.556502 0.161953 -0.814909
vn -0.062287 0.094379 -0.993586
vn 0.032221 0.629788 -0.776098
vn -0.062287 0.094379 -0.993586
vn -0.346373 0.787431 -0.509880
vn 0.983167 0.092389 -0.157630
vn 0.953805 0.013111 -0.300140
vn 0.495668 -0.013961 -0.868400
vn 0.953805 0.013111 -0.300140
vn 0.979140 -0.013654 -0.202728
vn 0.614270 -0.023568 -0.788744
vn 0.983184 -0.012312 -0.182201
vn 0.612420 -0.034720 -0.789769
vn 0.614270 -0.023568 -0.788744
vn 0.983184 -0.012312 -0.182201
vn 0.982872 0.006898 -0.184162
vn 0.578737 -0.002460 -0.815510
vn 0.982872 0.006898 -0.184162
vn 0.972123 -0.046258 -0.229862
vn 0.572296 -0.075483 -0.816566
vn 0.972123 -0.046258 -0.229862
vn 0.880451 0.057817 -0.470599
vn 0.371875 -0.049233 -0.926976
vn 0.556502 0.161953 -0.814909
vn 0.495668 -0.013961 -0.868400
vn -0.006213 0.060888 -0.998125
vn -0.062287 0.094379 -0.993586
vn -0.006213 0.060888 -0.998125
vn -0.807326 0.062610 -0.586775
vn -0.807326 0.062610 -0.586775
vn -0.006213 0.060888 -0.998125
vn -0.162298 -0.008026 -0.986709
vn -0.902343 -0.095805 -0.420237
vn -0.162298 -0.008026 -0.986709
vn -0.247930 -0.075462 -0.965834
vn -0.928877 -0.059402 -0.365593
vn -0.247930 -0.075462 -0.965834
vn -0.200155 -0.031994 -0.979242
vn -0.877350 -0.003493 -0.479838
vn -0.200155 -0.031994 -0.979242
vn -0.192254 -0.047111 -0.980214
vn -0.200155 -0.031994 -0.979242
vn 0.572296 -0.075483 -0.816566
vn 0.371875 -0.049233 -0.926976
vn 0.578737 -0.002460 -0.815510
vn 0.572296 -0.075483 -0.816566
vn -0.200155 -0.031994 -0.979242
vn 0.578737 -0.002460 -0.815510
vn -0.200155 -0.031994 -0.979242
vn -0.247930 -0.075462 -0.965834
vn 0.612420 -0.034720 -0.789769
vn -0.247930 -0.075462 -0.965834
vn -0.162298 -0.008026 -0.986709
vn 0.614270 -0.023568 -0.788744
vn -0.162298 -0.008026 -0.986709
vn -0.006213 0.060888 -0.998125
vn -0.825179 -0.095413 0.556756
vn -0.196051 -0.405261 0.892932
vn 0.254659 0.037645 0.966298
vn 0.951111 0.037008 0.306623
vn 0.878242 0.296368 0.375309
vn 0.328571 0.467031 0.820928
vn 0.940553 -0.017674 0.339186
vn 0.951111 0.037008 0.306623
vn 0.455882 0.061273 0.887929
vn 0.904828 -0.040269 0.423868
vn 0.940553 -0.017674 0.339186
vn 0.388274 0.019702 0.921333
vn 0.922649 -0.003287 0.385627
vn 0.904828 -0.040269 0.423868
vn 0.177678 0.020654 0.983872
vn -0.799482 -0.020030 0.600356
vn 0.254659 0.037645 0.966298
vn 0.177678 0.020654 0.983872
vn -0.749432 -0.105096 0.653687
vn -0.803089 -0.018315 0.595577
vn 0.177678 0.020654 0.983872
vn -0.413375 0.027909 0.910133
vn -0.749432 -0.105096 0.653687
vn 0.388274 0.019702 0.921333
vn -0.427507 0.281249 0.859149
vn -0.413375 0.027909 0.910133
vn 0.455882 0.061273 0.887929
vn 0.966389 0.029602 0.255374
vn 0.922649 -0.003287 0.385627
vn 0.254659 0.037645 0.966298
vn 0.416866 -0.545032 0.727436
vn 0.511862 -0.059814 0.856983
vn -0.196051 -0.405261 0.892932
vn 0.944255 -0.089841 0.316721
vn 0.966389 0.029602 0.255374
vn 0.511862 -0.059814 0.856983
vn 0.880451 0.057817 -0.470599
vn 0.972123 -0.046258 -0.229862
vn 0.966389 0.029602 0.255374
vn 0.982872 0.006898 -0.184162
vn 0.922649 -0.003287 0.385627
vn 0.966389 0.029602 0.255374
vn 0.983184 -0.012312 -0.182201
vn 0.904828 -0.040269 0.423868
vn 0.922649 -0.003287 0.385627
vn 0.979140 -0.013654 -0.202728
vn 0.940553 -0.017674 0.339186
vn 0.904828 -0.040269 0.423868
vn 0.953805 0.013111 -0.300140
vn 0.951111 0.037008 0.306623
vn 0.940553 -0.017674 0.339186
vn -0.846433 0.405283 0.345393
vn -0.932658 0.052628 0.356904
vn -0.413375 0.027909 0.910133
vn -0.418771 0.858500 0.295989
vn -0.427507 0.281249 0.859149
vn 0.328571 0.467031 0.820928
vn -0.418771 0.858500 0.295989
vn -0.846433 0.405283 0.345393
vn -0.427507 0.281249 0.859149
vn -0.899213 0.433671 -0.057839
vn -0.435246 0.894216 -0.104594
vn -0.346373 0.787431 -0.509880
vn -0.435246 0.894216 -0.104594
vn -0.899213 0.433671 -0.057839
vn -0.846433 0.405283 0.345393
vn 0.379851 0.890274 0.251247
vn 0.328571 0.467031 0.820928
vn 0.878242 0.296368 0.375309
vn 0.648125 0.607228 -0.459573
vn 0.707967 0.703839 0.058260
vn 0.878242 0.296368 0.375309
vn 0.953805 0.013111 -0.300140
vn 0.983167 0.092389 -0.157630
vn 0.878242 0.296368 0.375309
vn 0.214326 0.971496 -0.101291
vn 0.032221 0.629788 -0.776098
vn -0.346373 0.787431 -0.509880
vn -0.995136 0.051073 -0.084232
vn -0.899213 0.433671 -0.057839
vn -0.692261 0.388090 -0.608409
vn -0.932658 0.052628 0.356904
vn -0.846433 0.405283 0.345393
vn -0.899213 0.433671 -0.057839
vn -0.902343 -0.095805 -0.420237
vn -0.749432 -0.105096 0.653687
vn -0.932658 0.052628 0.356904
vn -0.902343 -0.095805 -0.420237
vn -0.928877 -0.059402 -0.365593
vn -0.803089 -0.018315 0.595577
vn -0.877350 -0.003493 -0.479838
vn -0.799482 -0.020030 0.600356
vn -0.803089 -0.018315 0.595577
vn -0.877350 -0.003493 -0.479838
vn -0.872717 0.011000 -0.488103
vn -0.825179 -0.095413 0.556756
vn -0.062287 0.094379 -0.993586
vn 0.032221 0.629788 -0.776098
vn 0.648125 0.607228 -0.459573
vn 0.495668 -0.013961 -0.868400
vn 0.556502 0.161953 -0.814909
vn 0.983167 0.092389 -0.157630
vn 0.614270 -0.023568 -0.788744
vn 0.495668 -0.013961 -0.868400
vn 0.953805 0.013111 -0.300140
vn 0.614270 -0.023568 -0.788744
vn 0.979140 -0.013654 -0.202728
vn 0.983184 -0.012312 -0.182201
vn 0.578737 -0.002460 -0.815510
vn 0.612420 -0.034720 -0.789769
vn 0.983184 -0.012312 -0.182201
vn 0.572296 -0.075483 -0.816566
vn 0.578737 -0.002460 -0.815510
vn 0.982872 0.006898 -0.184162
vn 0.371875 -0.049233 -0.926976
vn 0.572296 -0.075483 -0.816566
vn 0.972123 -0.046258 -0.229862
vn -0.006213 0.060888 -0.998125
vn -0.062287 0.094379 -0.993586
vn 0.556502 0.161953 -0.814909
vn -0.807326 0.062610 -0.586775
vn -0.692261 0.388090 -0.608409
vn -0.062287 0.094379 -0.993586
vn -0.162298 -0.008026 -0.986709
vn -0.902343 -0.095805 -0.420237
vn -0.807326 0.062610 -0.586775
vn -0.247930 -0.075462 -0.965834
vn -0.928877 -0.059402 -0.365593
vn -0.902343 -0.095805 -0.420237
vn -0.200155 -0.031994 -0.979242
vn -0.877350 -0.003493 -0.479838
vn -0.928877 -0.059402 -0.365593
vn -0.192254 -0.047111 -0.980214
vn -0.872717 0.011000 -0.488103
vn -0.877350 -0.003493 -0.479838
vn 0.371875 -0.049233 -0.926976
vn -0.192254 -0.047111 -0.980214
vn -0.200155 -0.031994 -0.979242
vn -0.247930 -0.075462 -0.965834
vn 0.612420 -0.034720 -0.789769
vn 0.578737 -0.002460 -0.815510
vn -0.162298 -0.008026 -0.986709
vn 0.614270 -0.023568 -0.788744
vn 0.612420 -0.034720 -0.789769
vn -0.006213 0.060888 -0.998125
vn 0.495668 -0.013961 -0.868400
vn 0.614270 -0.023568 -0.788744
# 330 vertex normals

vt 0.297596 0.751856 0.000000
vt 0.209983 0.728436 0.000000
vt 0.214517 0.829513 0.000000
vt 0.314051 0.402078 0.000000
vt 0.336386 0.459577 0.000000
vt 0.387064 0.505045 0.000000
vt 0.314135 0.531788 0.000000
vt 0.354253 0.572875 0.000000
vt 0.295070 0.598658 0.000000
vt 0.351822 0.618465 0.000000
vt 0.356470 0.754696 0.000000
vt 0.213985 0.575675 0.000000
vt 0.219039 0.487427 0.000000
vt 0.248025 0.410156 0.000000
vt 0.254370 0.364625 0.000000
vt 0.310668 0.803293 0.000000
vt 0.362696 0.819358 0.000000
vt 0.280949 0.823362 0.000000
vt 0.274312 0.838634 0.000000
vt 0.311769 0.846678 0.000000
vt 0.351239 0.855821 0.000000
vt 0.434150 0.875281 0.000000
vt 0.430753 0.832010 0.000000
vt 0.428575 0.761287 0.000000
vt 0.430868 0.633395 0.000000
vt 0.433656 0.575951 0.000000
vt 0.478416 0.478720 0.000000
vt 0.283859 0.339420 0.000000
vt 0.337425 0.401067 0.000000
vt 0.319456 0.340211 0.000000
vt 0.243982 0.345062 0.000000
vt 0.311731 0.404886 0.000000
vt 0.220544 0.390431 0.000000
vt 0.370198 0.354965 0.000000
vt 0.368394 0.339550 0.000000
vt 0.319848 0.307535 0.000000
vt 0.334647 0.428853 0.000000
vt 0.401791 0.420041 0.000000
vt 0.337678 0.431893 0.000000
vt 0.415542 0.429343 0.000000
vt 0.383119 0.365720 0.000000
vt 0.389730 0.321014 0.000000
vt 0.341034 0.274360 0.000000
vt 0.437252 0.299415 0.000000
vt 0.499349 0.275301 0.000000
vt 0.616182 0.242595 0.000000
vt 0.397275 0.360161 0.000000
vt 0.415065 0.427790 0.000000
vt 0.481605 0.449406 0.000000
vt 0.542178 0.459609 0.000000
vt 0.588071 0.429980 0.000000
vt 0.683543 0.385856 0.000000
vt 0.729125 0.358757 0.000000
vt 0.757749 0.336226 0.000000
vt 0.454887 0.364573 0.000000
vt 0.478119 0.354656 0.000000
vt 0.534700 0.333316 0.000000
vt 0.644769 0.288547 0.000000
vt 0.712441 0.261366 0.000000
vt 0.687009 0.220515 0.000000
vt 0.775977 0.360271 0.000000
vt 0.748876 0.379706 0.000000
vt 0.702576 0.413098 0.000000
vt 0.604785 0.467492 0.000000
vt 0.542360 0.494806 0.000000
vt 0.546037 0.137359 0.000000
vt 0.630259 0.125112 0.000000
vt 0.431999 0.178749 0.000000
vt 0.367571 0.196206 0.000000
vt 0.276202 0.282122 0.000000
vt 0.301731 0.235558 0.000000
# 71 texture coords

g FirePoleLvl2
s 1
f 11/1/1 14/2/2 2/3/3 
f 3/4/4 5/5/5 6/6/6 
f 5/5/7 7/7/8 8/8/9 
f 7/7/10 9/9/11 10/10/12 
f 9/9/13 11/1/14 12/11/15 
f 9/9/16 13/12/17 14/2/18 
f 9/9/19 7/7/20 15/13/21 
f 7/7/22 5/5/23 16/14/24 
f 5/5/25 3/4/26 17/15/27 
f 11/1/28 18/16/29 19/17/30 
f 11/1/31 1/18/32 18/16/33 
f 1/18/34 2/3/35 21/19/36 
f 1/18/37 21/19/38 20/20/39 
f 18/16/40 20/20/41 22/21/42 
f 19/17/43 22/21/44 23/22/45 
f 19/17/46 24/23/47 25/24/48 
f 12/11/49 25/24/50 26/25/51 
f 10/10/52 26/25/53 27/26/54 
f 8/8/55 27/26/56 28/27/57 
f 32/28/58 34/29/59 38/30/60 
f 16/14/61 17/15/62 30/31/63 
f 3/4/64 31/32/65 32/28/66 
f 16/14/67 33/33/68 15/13/69 
f 32/28/70 31/32/71 34/29/72 
f 36/34/73 35/35/74 37/36/75 
f 30/70/76 32/28/77 38/30/78 
f 34/29/79 31/32/80 39/37/81 
f 39/37/82 40/38/83 34/29/84 
f 4/39/85 39/37/86 31/32/87 
f 4/39/88 41/40/89 40/38/90 
f 4/39/91 6/6/92 28/27/93 
f 36/34/94 38/30/95 34/29/96 
f 29/41/97 34/29/98 40/38/99 
f 35/35/100 42/42/101 43/43/102 
f 37/36/103 43/43/104 33/71/105 
f 33/71/106 43/43/107 44/44/108 
f 42/42/109 44/44/110 43/43/111 
f 13/68/112 15/69/113 44/44/114 
f 13/68/115 45/45/116 46/46/117 
f 2/67/118 14/66/119 46/46/120 
f 35/35/121 36/34/122 48/47/123 
f 40/38/124 41/40/125 49/48/126 
f 40/38/127 49/48/128 48/47/129 
f 29/41/130 48/47/131 36/34/132 
f 41/40/133 28/27/134 50/49/135 
f 28/27/136 27/65/137 51/50/138 
f 26/64/139 52/51/140 51/50/141 
f 26/64/142 25/63/143 53/52/144 
f 25/63/145 24/62/146 54/53/147 
f 24/62/148 23/61/149 55/54/150 
f 49/48/151 50/49/152 56/55/153 
f 48/47/154 56/55/155 42/42/156 
f 42/42/157 56/55/158 57/56/159 
f 44/44/160 57/56/161 58/57/162 
f 45/45/163 58/57/164 59/58/165 
f 46/46/166 59/58/167 60/59/168 
f 59/58/169 54/53/170 55/54/171 
f 53/52/172 54/53/173 59/58/174 
f 53/52/175 59/58/176 58/57/177 
f 52/51/178 58/57/179 57/56/180 
f 51/50/181 57/56/182 56/55/183 
f 2/3/184 1/18/185 11/1/186 
f 6/6/187 4/39/188 3/4/189 
f 8/8/190 6/6/191 5/5/192 
f 10/10/193 8/8/194 7/7/195 
f 12/11/196 10/10/197 9/9/198 
f 14/2/199 11/1/200 9/9/201 
f 15/13/202 13/12/203 9/9/204 
f 16/14/205 15/13/206 7/7/207 
f 17/15/208 16/14/209 5/5/210 
f 19/17/211 12/11/212 11/1/213 
f 20/20/214 18/16/215 1/18/216 
f 22/21/217 19/17/218 18/16/219 
f 23/22/220 24/23/221 19/17/222 
f 25/24/223 12/11/224 19/17/225 
f 26/25/226 10/10/227 12/11/228 
f 27/26/229 8/8/230 10/10/231 
f 28/27/232 6/6/233 8/8/234 
f 30/31/235 33/33/236 16/14/237 
f 32/28/238 17/15/239 3/4/240 
f 32/28/241 30/31/242 17/15/243 
f 37/36/244 38/30/245 36/34/246 
f 38/30/247 37/36/248 30/70/249 
f 31/32/250 3/4/251 4/39/252 
f 40/38/253 39/37/254 4/39/255 
f 28/27/256 41/40/257 4/39/258 
f 34/29/259 29/41/260 36/34/261 
f 43/43/262 37/36/263 35/35/264 
f 33/71/265 30/70/266 37/36/267 
f 44/44/268 15/69/269 33/71/270 
f 44/44/271 45/45/272 13/68/273 
f 46/46/274 14/66/275 13/68/276 
f 46/46/277 47/60/278 2/67/279 
f 48/47/280 29/41/281 40/38/282 
f 50/49/283 49/48/284 41/40/285 
f 51/50/286 50/49/287 28/27/288 
f 51/50/289 27/65/290 26/64/291 
f 53/52/292 52/51/293 26/64/294 
f 54/53/295 53/52/296 25/63/297 
f 55/54/298 54/53/299 24/62/300 
f 56/55/301 48/47/302 49/48/303 
f 42/42/304 35/35/305 48/47/306 
f 57/56/307 44/44/308 42/42/309 
f 58/57/310 45/45/311 44/44/312 
f 59/58/313 46/46/314 45/45/315 
f 60/59/316 47/60/317 46/46/318 
f 55/54/319 60/59/320 59/58/321 
f 58/57/322 52/51/323 53/52/324 
f 57/56/325 51/50/326 52/51/327 
f 56/55/328 50/49/329 51/50/330 
# 0 polygons - 110 triangles

