# 3ds Max Wavefront OBJ Exporter v0.97b - (c)2007 guruware
# File Created: 05.02.2017 22:30:17

#
# object RootWallLvl3
#

v  -196.850464 -0.000002 35.630096
v  196.850311 -0.000002 35.631012
v  -196.850296 -0.000002 -35.631042
v  196.850357 -0.000002 -35.630188
v  -196.850449 307.017822 28.991821
v  196.850327 307.017822 28.992767
v  -196.850311 307.017822 -28.992828
v  196.850342 307.017822 -28.991943
v  -185.208633 313.747314 35.382446
v  -175.889160 307.780151 22.200745
v  -165.053223 311.129913 33.550049
v  -152.870026 310.788086 32.535004
v  -141.059494 307.017822 19.435364
v  -70.792786 310.078827 23.968323
v  157.554977 324.801605 16.648926
v  170.557831 322.225464 23.968933
v  183.538300 313.588654 23.968964
v  186.661743 312.883942 -35.630096
v  175.862671 310.523834 -35.630127
v  159.387726 315.112122 -35.630157
v  -63.334240 310.078827 -43.954987
v  -144.895996 307.017822 -35.630920
v  -154.537247 322.845123 -36.160126
v  -171.222488 321.037445 -32.258850
v  -177.060913 307.780151 -35.630981
v  -185.124023 313.747314 -35.631012
v  -120.811882 315.639984 27.526001
v  -109.085732 315.639984 -45.539124
v  147.197510 309.470428 23.968872
v  151.122742 307.096863 -35.630188
v  -58.930634 314.693207 34.705627
v  -43.740456 314.693207 -47.568787
v  -14.251234 311.104767 33.892181
v  -31.676111 309.193756 -31.262299
v  106.167725 302.543762 25.024078
v  113.123291 309.425995 -40.604095
v  44.248280 311.179474 35.393158
v  97.161835 314.426483 17.102600
v  101.099236 317.340820 -41.460358
v  17.833473 319.865601 -42.879517
v  -3.657678 315.588776 33.637360
v  -19.526144 318.527954 -39.472748
v  60.919533 317.259979 1.078247
v  3.962774 317.122284 -32.105896
v  196.850296 269.014984 40.309448
v  -196.850479 269.014984 40.308472
v  196.850494 269.014984 -40.308655
v  -196.850281 269.014984 -40.309570
v  -164.206100 297.954834 -57.783997
v  -126.729004 262.308533 -49.781555
v  -50.395298 269.014984 -48.686096
v  -24.302307 269.014984 -44.574402
v  114.002785 269.014984 -44.010529
v  -166.833267 257.485046 38.006454
v  -184.013992 269.014984 36.679672
v  -131.821793 249.603653 32.734009
v  -86.375061 243.369019 31.231079
v  -27.474535 231.219849 43.174805
v  -0.257020 247.563690 33.441406
v  51.307041 241.847687 46.501221
v  107.847565 234.302475 38.938507
v  157.267715 269.014954 36.977554
v  -119.638588 -0.000002 -35.630859
v  -52.111912 -0.000002 -35.630676
v  114.048927 -0.000002 -40.096100
v  -0.236004 -0.000002 -35.630554
v  -146.771927 -0.000002 23.968140
v  -116.112221 -0.000002 23.968231
v  -51.520153 -0.000002 25.200195
v  -19.304014 -0.000002 25.522034
v  44.963776 -0.000002 23.968628
v  76.887093 -0.000002 23.968689
v  129.972397 -0.000002 29.629181
v  174.283310 -0.000002 23.968933
v  174.581436 269.014984 -37.882690
v  166.008759 -0.000002 -37.293579
v  66.307121 313.254211 -20.808838
v  66.263008 269.014984 -44.205170
v  58.785160 -0.000002 -37.936737
v  66.288094 294.178558 -30.897186
v  42.306026 306.425537 -48.341553
v  46.078465 269.014984 -44.287445
# 82 vertices

vn 0.122228 0.708878 0.694660
vn 0.352547 0.651686 -0.671577
vn 0.287619 0.858993 -0.423564
vn -0.073226 0.100159 0.992273
vn -0.048124 0.110708 0.992687
vn -0.116600 -0.022324 0.992928
vn -0.354903 0.077183 -0.931712
vn -0.013297 0.790987 -0.611689
vn -0.289510 0.652226 -0.700561
vn 0.100230 0.639888 0.761904
vn 0.469944 0.597877 -0.649381
vn 0.217059 0.706323 -0.673790
vn 0.273322 0.752370 0.599362
vn 0.217059 0.706323 -0.673790
vn 0.050629 0.614631 -0.787188
vn 0.224288 0.798964 0.557989
vn 0.050629 0.614631 -0.787188
vn -0.167705 0.695042 -0.699137
vn -0.286387 0.665649 0.689125
vn 0.160405 0.701114 -0.694773
vn -0.077175 0.701349 -0.708628
vn -0.139886 0.736764 0.661521
vn -0.060629 0.743927 -0.665505
vn 0.352547 0.651686 -0.671577
vn -0.536390 0.648946 -0.539588
vn -0.468130 0.603174 0.645783
vn 0.099705 0.707476 0.699669
vn -0.013297 0.790987 -0.611689
vn 0.099705 0.707476 0.699669
vn 0.157488 0.826287 0.540783
vn -0.289510 0.652226 -0.700561
vn 0.157488 0.826287 0.540783
vn -0.260650 0.627381 0.733795
vn -0.525307 0.772104 -0.357643
vn -0.260650 0.627381 0.733795
vn 0.341348 0.570786 0.746783
vn -0.207172 0.724026 0.657926
vn -0.077175 0.701349 -0.708628
vn -0.060629 0.743927 -0.665505
vn -0.328063 0.911704 0.247325
vn -0.167705 0.695042 -0.699137
vn -0.172193 0.552301 -0.815667
vn -0.084954 0.621152 0.779072
vn 0.195502 0.777010 -0.598360
vn 0.160405 0.701114 -0.694773
vn -0.084954 0.621152 0.779072
vn -0.226989 0.739184 -0.634101
vn 0.195502 0.777010 -0.598360
vn -0.290045 0.634121 0.716774
vn -0.172193 0.552301 -0.815667
vn 0.214881 0.684717 -0.696411
vn 0.041410 0.610118 0.791228
vn 0.171158 0.578360 0.797625
vn 0.349267 0.837222 0.420799
vn 0.163223 0.774570 -0.611065
vn 0.349267 0.837222 0.420799
vn 0.171158 0.578360 0.797625
vn 0.349267 0.837222 0.420799
vn 0.163223 0.774570 -0.611065
vn 0.029615 0.998214 0.051878
vn -0.012746 0.804506 -0.593807
vn -0.095503 0.745173 -0.659997
vn 0.029615 0.998214 0.051878
vn -0.084954 0.621152 0.779072
vn 0.048235 -0.001394 0.998835
vn 0.039478 0.007712 0.999191
vn 0.004719 -0.046225 -0.998920
vn -0.026509 -0.051388 -0.998327
vn -0.085475 0.334529 -0.938501
vn -0.289510 0.652226 -0.700561
vn -0.525307 0.772104 -0.357643
vn 0.287619 0.858993 -0.423564
vn 0.352547 0.651686 -0.671577
vn -0.060629 0.743927 -0.665505
vn 0.056433 0.037758 -0.997692
vn 0.160405 0.701114 -0.694773
vn 0.058279 0.031775 -0.997795
vn 0.045703 0.001504 -0.998954
vn 0.195502 0.777010 -0.598360
vn -0.226989 0.739184 -0.634101
vn 0.058279 0.031775 -0.997795
vn 0.214881 0.684717 -0.696411
vn -0.172193 0.552301 -0.815667
vn 0.040409 0.026044 -0.998844
vn 0.122228 0.708878 0.694660
vn 0.341348 0.570786 0.746783
vn 0.033310 0.048277 0.998278
vn 0.157488 0.826287 0.540783
vn 0.099705 0.707476 0.699669
vn 0.123135 0.107648 0.986534
vn 0.122228 0.708878 0.694660
vn 0.033310 0.048277 0.998278
vn 0.044888 0.041518 0.998129
vn -0.139886 0.736764 0.661521
vn 0.044888 0.041518 0.998129
vn -0.039851 0.026984 0.998841
vn -0.084954 0.621152 0.779072
vn -0.286387 0.665649 0.689125
vn 0.048235 -0.001394 0.998835
vn 0.224288 0.798964 0.557989
vn -0.328063 0.911704 0.247325
vn -0.290045 0.634121 0.716774
vn 0.041410 0.610118 0.791228
vn -0.104217 0.704551 0.701959
vn 0.039478 0.007712 0.999191
vn 0.171158 0.578360 0.797625
vn 0.041410 0.610118 0.791228
vn -0.028014 0.031447 0.999113
vn -0.290045 0.634121 0.716774
vn 0.171158 0.578360 0.797625
vn 0.046334 0.039398 0.998149
vn -0.207172 0.724026 0.657926
vn -0.039851 0.026984 0.998841
vn 0.048235 -0.001394 0.998835
vn 0.157488 0.826287 0.540783
vn 0.123135 0.107648 0.986534
vn 0.033310 0.048277 0.998278
vn 0.341348 0.570786 0.746783
vn -0.260650 0.627381 0.733795
vn 0.033310 0.048277 0.998278
vn -0.468130 0.603174 0.645783
vn 0.182680 0.098294 0.978247
vn 0.123135 0.107648 0.986534
vn -0.026509 -0.051388 -0.998327
vn -0.354903 0.077183 -0.931712
vn -0.085475 0.334529 -0.938501
vn 0.056433 0.037758 -0.997692
vn 0.045703 0.001504 -0.998954
vn 0.004791 -0.032120 -0.999473
vn 0.058279 0.031775 -0.997795
vn -0.011093 -0.021914 -0.999698
vn 0.004791 -0.032120 -0.999473
vn 0.040409 0.026044 -0.998844
vn 0.013485 0.049135 -0.998701
vn 0.034929 -0.010789 -0.999332
vn -0.012492 -0.035022 -0.999308
vn -0.025041 -0.017516 -0.999533
vn -0.011093 -0.021914 -0.999698
vn 0.123135 0.107648 0.986534
vn 0.182680 0.098294 0.978247
vn 0.153119 -0.010977 0.988147
vn 0.123135 0.107648 0.986534
vn 0.153119 -0.010977 0.988147
vn 0.071575 -0.019917 0.997236
vn 0.044888 0.041518 0.998129
vn 0.033310 0.048277 0.998278
vn 0.071575 -0.019917 0.997236
vn -0.039851 0.026984 0.998841
vn 0.044888 0.041518 0.998129
vn -0.004527 -0.023194 0.999721
vn 0.048235 -0.001394 0.998835
vn -0.039851 0.026984 0.998841
vn -0.021021 -0.038756 0.999028
vn 0.039478 0.007712 0.999191
vn 0.048235 -0.001394 0.998835
vn 0.014686 -0.041068 0.999048
vn -0.028014 0.031447 0.999113
vn 0.039478 0.007712 0.999191
vn -0.005723 -0.049078 0.998779
vn 0.046334 0.039398 0.998149
vn -0.028014 0.031447 0.999113
vn -0.025034 -0.053217 0.998269
vn -0.048124 0.110708 0.992687
vn 0.046334 0.039398 0.998149
vn 0.009157 -0.032561 0.999428
vn -0.199024 0.864872 -0.460854
vn -0.095503 0.745173 -0.659997
vn 0.058279 0.031775 -0.997795
vn -0.060629 0.743927 -0.665505
vn -0.077175 0.701349 -0.708628
vn 0.045703 0.001504 -0.998954
vn -0.167705 0.695042 -0.699137
vn 0.013485 0.049135 -0.998701
vn -0.172193 0.552301 -0.815667
vn 0.050629 0.614631 -0.787188
vn 0.217059 0.706323 -0.673790
vn 0.013485 0.049135 -0.998701
vn -0.066990 0.106807 -0.992020
vn 0.035603 -0.012789 -0.999284
vn 0.034929 -0.010789 -0.999332
vn 0.469944 0.597877 -0.649381
vn -0.066990 0.106807 -0.992020
vn 0.013485 0.049135 -0.998701
vn -0.167705 0.695042 -0.699137
vn 0.050629 0.614631 -0.787188
vn 0.013485 0.049135 -0.998701
vn -0.199024 0.864872 -0.460854
vn -0.226989 0.739184 -0.634101
vn -0.104217 0.704551 0.701959
vn 0.160405 0.701114 -0.694773
vn 0.195502 0.777010 -0.598360
vn 0.058279 0.031775 -0.997795
vn -0.048124 0.110708 0.992687
vn -0.073226 0.100159 0.992273
vn 0.273322 0.752370 0.599362
vn -0.073226 0.100159 0.992273
vn 0.100230 0.639888 0.761904
vn 0.273322 0.752370 0.599362
vn -0.095503 0.745173 -0.659997
vn -0.012746 0.804506 -0.593807
vn 0.157838 0.327255 -0.931661
vn 0.352547 0.651686 -0.671577
vn 0.056433 0.037758 -0.997692
vn -0.085475 0.334529 -0.938501
vn -0.354903 0.077183 -0.931712
vn -0.536390 0.648946 -0.539588
vn -0.013297 0.790987 -0.611689
vn 0.029615 0.998214 0.051878
vn 0.163223 0.774570 -0.611065
vn -0.012746 0.804506 -0.593807
vn -0.012746 0.804506 -0.593807
vn 0.163223 0.774570 -0.611065
vn 0.083372 0.361351 -0.928695
vn 0.019568 0.063411 -0.997796
vn 0.040409 0.026044 -0.998844
vn 0.006680 -0.013173 -0.999891
vn 0.163223 0.774570 -0.611065
vn 0.214881 0.684717 -0.696411
vn 0.040409 0.026044 -0.998844
vn 0.163223 0.774570 -0.611065
vn 0.019568 0.063411 -0.997796
vn 0.083372 0.361351 -0.928695
vn 0.019568 0.063411 -0.997796
vn -0.012492 -0.035022 -0.999308
vn 0.157838 0.327255 -0.931661
vn -0.012492 -0.035022 -0.999308
vn 0.019568 0.063411 -0.997796
vn -0.025041 -0.017516 -0.999533
vn -0.012746 0.804506 -0.593807
vn 0.083372 0.361351 -0.928695
vn 0.157838 0.327255 -0.931661
vn -0.095503 0.745173 -0.659997
vn 0.157838 0.327255 -0.931661
vn -0.012492 -0.035022 -0.999308
vn -0.095503 0.745173 -0.659997
vn -0.199024 0.864872 -0.460854
vn -0.104217 0.704551 0.701959
vn -0.226989 0.739184 -0.634101
vn -0.199024 0.864872 -0.460854
vn 0.058279 0.031775 -0.997795
vn 0.287619 0.858993 -0.423564
vn 0.341348 0.570786 0.746783
vn 0.122228 0.708878 0.694660
vn -0.116600 -0.022324 0.992928
vn -0.323044 -0.012111 0.946306
vn -0.073226 0.100159 0.992273
vn -0.289510 0.652226 -0.700561
vn -0.085475 0.334529 -0.938501
vn -0.354903 0.077183 -0.931712
vn 0.217059 0.706323 -0.673790
vn 0.273322 0.752370 0.599362
vn 0.100230 0.639888 0.761904
vn 0.050629 0.614631 -0.787188
vn 0.224288 0.798964 0.557989
vn 0.273322 0.752370 0.599362
vn -0.167705 0.695042 -0.699137
vn -0.328063 0.911704 0.247325
vn 0.224288 0.798964 0.557989
vn -0.077175 0.701349 -0.708628
vn -0.207172 0.724026 0.657926
vn -0.286387 0.665649 0.689125
vn 0.352547 0.651686 -0.671577
vn 0.122228 0.708878 0.694660
vn -0.139886 0.736764 0.661521
vn 0.099705 0.707476 0.699669
vn -0.013297 0.790987 -0.611689
vn -0.536390 0.648946 -0.539588
vn 0.157488 0.826287 0.540783
vn -0.289510 0.652226 -0.700561
vn -0.013297 0.790987 -0.611689
vn -0.260650 0.627381 0.733795
vn -0.525307 0.772104 -0.357643
vn -0.289510 0.652226 -0.700561
vn 0.341348 0.570786 0.746783
vn 0.287619 0.858993 -0.423564
vn -0.525307 0.772104 -0.357643
vn -0.060629 0.743927 -0.665505
vn -0.139886 0.736764 0.661521
vn -0.207172 0.724026 0.657926
vn -0.172193 0.552301 -0.815667
vn -0.290045 0.634121 0.716774
vn -0.328063 0.911704 0.247325
vn 0.160405 0.701114 -0.694773
vn -0.286387 0.665649 0.689125
vn -0.084954 0.621152 0.779072
vn -0.104217 0.704551 0.701959
vn -0.226989 0.739184 -0.634101
vn -0.084954 0.621152 0.779072
vn 0.214881 0.684717 -0.696411
vn 0.171158 0.578360 0.797625
vn -0.290045 0.634121 0.716774
vn 0.171158 0.578360 0.797625
vn 0.214881 0.684717 -0.696411
vn 0.163223 0.774570 -0.611065
vn -0.104217 0.704551 0.701959
vn 0.041410 0.610118 0.791228
vn 0.029615 0.998214 0.051878
vn 0.029615 0.998214 0.051878
vn 0.041410 0.610118 0.791228
vn 0.349267 0.837222 0.420799
vn 0.039478 0.007712 0.999191
vn -0.104217 0.704551 0.701959
vn -0.084954 0.621152 0.779072
vn -0.085475 0.334529 -0.938501
vn 0.056433 0.037758 -0.997692
vn 0.004719 -0.046225 -0.998920
vn 0.287619 0.858993 -0.423564
vn -0.085475 0.334529 -0.938501
vn -0.289510 0.652226 -0.700561
vn 0.045703 0.001504 -0.998954
vn -0.077175 0.701349 -0.708628
vn 0.160405 0.701114 -0.694773
vn 0.044888 0.041518 0.998129
vn -0.139886 0.736764 0.661521
vn 0.122228 0.708878 0.694660
vn -0.039851 0.026984 0.998841
vn -0.207172 0.724026 0.657926
vn -0.139886 0.736764 0.661521
vn -0.290045 0.634121 0.716774
vn -0.048124 0.110708 0.992687
vn 0.224288 0.798964 0.557989
vn 0.039478 0.007712 0.999191
vn -0.028014 0.031447 0.999113
vn 0.041410 0.610118 0.791228
vn -0.028014 0.031447 0.999113
vn 0.046334 0.039398 0.998149
vn 0.171158 0.578360 0.797625
vn 0.046334 0.039398 0.998149
vn -0.048124 0.110708 0.992687
vn -0.290045 0.634121 0.716774
vn 0.048235 -0.001394 0.998835
vn -0.286387 0.665649 0.689125
vn -0.207172 0.724026 0.657926
vn 0.033310 0.048277 0.998278
vn -0.260650 0.627381 0.733795
vn 0.157488 0.826287 0.540783
vn 0.123135 0.107648 0.986534
vn 0.099705 0.707476 0.699669
vn -0.468130 0.603174 0.645783
vn 0.004791 -0.032120 -0.999473
vn 0.004719 -0.046225 -0.998920
vn 0.056433 0.037758 -0.997692
vn 0.004791 -0.032120 -0.999473
vn 0.045703 0.001504 -0.998954
vn 0.058279 0.031775 -0.997795
vn 0.034929 -0.010789 -0.999332
vn 0.006680 -0.013173 -0.999891
vn 0.040409 0.026044 -0.998844
vn -0.011093 -0.021914 -0.999698
vn 0.058279 0.031775 -0.997795
vn -0.012492 -0.035022 -0.999308
vn 0.071575 -0.019917 0.997236
vn 0.033310 0.048277 0.998278
vn 0.123135 0.107648 0.986534
vn 0.071575 -0.019917 0.997236
vn -0.004527 -0.023194 0.999721
vn 0.044888 0.041518 0.998129
vn -0.004527 -0.023194 0.999721
vn -0.021021 -0.038756 0.999028
vn -0.039851 0.026984 0.998841
vn -0.021021 -0.038756 0.999028
vn 0.014686 -0.041068 0.999048
vn 0.048235 -0.001394 0.998835
vn 0.014686 -0.041068 0.999048
vn -0.005723 -0.049078 0.998779
vn 0.039478 0.007712 0.999191
vn -0.005723 -0.049078 0.998779
vn -0.025034 -0.053217 0.998269
vn -0.028014 0.031447 0.999113
vn -0.025034 -0.053217 0.998269
vn 0.009157 -0.032561 0.999428
vn 0.046334 0.039398 0.998149
vn 0.009157 -0.032561 0.999428
vn -0.116600 -0.022324 0.992928
vn -0.048124 0.110708 0.992687
vn 0.045703 0.001504 -0.998954
vn 0.056433 0.037758 -0.997692
vn -0.060629 0.743927 -0.665505
vn 0.034929 -0.010789 -0.999332
vn 0.013485 0.049135 -0.998701
vn -0.066990 0.106807 -0.992020
vn 0.013485 0.049135 -0.998701
vn 0.217059 0.706323 -0.673790
vn 0.469944 0.597877 -0.649381
vn 0.273322 0.752370 0.599362
vn 0.224288 0.798964 0.557989
vn -0.048124 0.110708 0.992687
vn -0.085475 0.334529 -0.938501
vn 0.287619 0.858993 -0.423564
vn 0.352547 0.651686 -0.671577
vn 0.006680 -0.013173 -0.999891
vn -0.025041 -0.017516 -0.999533
vn 0.019568 0.063411 -0.997796
vn 0.040409 0.026044 -0.998844
vn 0.019568 0.063411 -0.997796
vn 0.163223 0.774570 -0.611065
vn 0.157838 0.327255 -0.931661
vn 0.083372 0.361351 -0.928695
vn 0.019568 0.063411 -0.997796
vn -0.012492 -0.035022 -0.999308
vn 0.058279 0.031775 -0.997795
vn -0.095503 0.745173 -0.659997
vn -0.104217 0.704551 0.701959
vn 0.029615 0.998214 0.051878
vn -0.095503 0.745173 -0.659997
vn 0.013485 0.049135 -0.998701
vn 0.040409 0.026044 -0.998844
vn -0.172193 0.552301 -0.815667
# 408 vertex normals

vt 0.080847 0.475528 0.000000
vt 0.102983 0.480614 0.000000
vt 0.098789 0.546436 0.000000
vt 0.078087 0.539567 0.000000
vt 0.659813 0.048517 0.000000
vt 0.666278 0.417955 0.000000
vt 0.598974 0.416972 0.000000
vt 0.622757 0.049187 0.000000
vt 0.609532 0.965229 0.000000
vt 0.669673 0.931469 0.000000
vt 0.023741 0.544666 0.000000
vt 0.036768 0.546891 0.000000
vt 0.646259 0.483237 0.000000
vt 0.668704 0.476233 0.000000
vt 0.665956 0.546671 0.000000
vt 0.648609 0.543335 0.000000
vt 0.626680 0.487253 0.000000
vt 0.631391 0.546476 0.000000
vt 0.608526 0.491683 0.000000
vt 0.603436 0.541240 0.000000
vt 0.218920 0.478577 0.000000
vt 0.240369 0.475882 0.000000
vt 0.260587 0.552585 0.000000
vt 0.230368 0.551912 0.000000
vt 0.137210 0.480920 0.000000
vt 0.157427 0.548910 0.000000
vt 0.003162 0.548915 0.000000
vt 0.002901 0.476709 0.000000
vt 0.021875 0.478012 0.000000
vt 0.041490 0.481382 0.000000
vt 0.053354 0.538446 0.000000
vt 0.060990 0.475412 0.000000
vt 0.584772 0.479638 0.000000
vt 0.587543 0.544760 0.000000
vt 0.313863 0.475788 0.000000
vt 0.284001 0.546365 0.000000
vt 0.332014 0.476990 0.000000
vt 0.305995 0.545499 0.000000
vt 0.515614 0.471605 0.000000
vt 0.526201 0.543722 0.000000
vt 0.409893 0.476082 0.000000
vt 0.496862 0.485998 0.000000
vt 0.508559 0.540931 0.000000
vt 0.438080 0.509941 0.000000
vt 0.447790 0.535294 0.000000
vt 0.365034 0.544292 0.000000
vt 0.292854 0.364553 0.000000
vt 0.340720 0.387820 0.000000
vt 0.531554 0.558962 0.000000
vt 0.659822 0.558907 0.000000
vt 0.545061 0.918922 0.000000
vt 0.374180 0.927144 0.000000
vt 0.418175 0.926985 0.000000
vt 0.142327 0.934413 0.000000
vt 0.060972 0.404857 0.000000
vt 0.032644 0.421244 0.000000
vt 0.118577 0.393382 0.000000
vt 0.193266 0.383575 0.000000
vt 0.425446 0.381774 0.000000
vt 0.517393 0.373398 0.000000
vt 0.010742 0.420187 0.000000
vt 0.418691 0.559253 0.000000
vt 0.331235 0.560149 0.000000
vt 0.041783 0.934244 0.000000
vt 0.055850 0.566294 0.000000
vt 0.141247 0.565549 0.000000
vt 0.256269 0.929619 0.000000
vt 0.232475 0.563085 0.000000
vt 0.012305 0.052437 0.000000
vt 0.094382 0.052218 0.000000
vt 0.144709 0.051450 0.000000
vt 0.251272 0.050072 0.000000
vt 0.304666 0.048841 0.000000
vt 0.410241 0.048476 0.000000
vt 0.463244 0.049828 0.000000
vt 0.550255 0.050428 0.000000
vt 0.342868 0.541615 0.000000
vt 0.004673 0.934788 0.000000
vt 0.005178 0.566435 0.000000
vt 0.266358 0.978389 0.000000
vt 0.221979 0.970279 0.000000
vt 0.221757 0.932569 0.000000
vt 0.571234 0.990013 0.000000
vt 0.591935 0.996881 0.000000
vt 0.646281 0.991783 0.000000
vt 0.633255 0.989558 0.000000
vt 0.004066 0.989777 0.000000
vt 0.021414 0.993114 0.000000
vt 0.038632 0.989973 0.000000
vt 0.066587 0.995209 0.000000
vt 0.409435 0.983864 0.000000
vt 0.439655 0.984537 0.000000
vt 0.512595 0.987539 0.000000
vt 0.666861 0.987534 0.000000
vt 0.616669 0.998003 0.000000
vt 0.082479 0.991688 0.000000
vt 0.386021 0.990084 0.000000
vt 0.364027 0.990950 0.000000
vt 0.143821 0.992727 0.000000
vt 0.161463 0.995518 0.000000
vt 0.222232 1.001155 0.000000
vt 0.304989 0.992157 0.000000
vt 0.327154 0.994834 0.000000
# 103 texture coords

g RootWallLvl3
s 1
f 13/2/1 22/3/2 23/4/3 
f 45/6/4 62/7/5 74/8/6 
f 48/10/7 26/85/8 25/86/9 
f 6/14/10 8/15/11 18/16/12 
f 17/13/13 18/16/14 19/18/15 
f 16/17/16 19/18/17 20/20/18 
f 31/22/19 32/23/20 21/24/21 
f 27/25/22 28/26/23 22/3/24 
f 7/27/25 5/28/26 9/29/27 
f 26/11/28 9/29/29 10/30/30 
f 25/12/31 10/30/32 11/32/33 
f 24/31/34 11/32/35 12/1/36 
f 14/21/37 21/24/38 28/26/39 
f 15/19/40 20/20/41 30/34/42 
f 33/35/43 34/36/44 32/23/45 
f 33/35/46 42/38/47 34/36/48 
f 29/33/49 30/34/50 36/40/51 
f 37/41/52 35/39/53 38/42/54 
f 39/43/55 38/42/56 35/39/57 
f 38/42/58 39/43/59 43/44/60 
f 77/45/61 40/46/62 43/44/63 
f 33/35/64 58/47/65 59/48/66 
f 63/49/67 3/50/68 49/9/69 
f 25/86/70 24/95/71 23/84/72 
f 22/83/73 28/93/74 50/51/75 
f 32/91/76 52/52/77 51/53/78 
f 34/97/79 42/98/80 52/52/81 
f 36/99/82 30/96/83 53/54/84 
f 13/2/85 12/1/86 54/55/87 
f 10/30/88 9/29/89 55/56/90 
f 13/2/91 54/55/92 56/57/93 
f 27/25/94 56/57/95 57/58/96 
f 33/35/97 31/22/98 58/47/99 
f 16/17/100 15/19/101 29/33/102 
f 37/41/103 41/37/104 59/48/105 
f 35/39/106 37/41/107 60/59/108 
f 29/33/109 35/39/110 61/60/111 
f 14/21/112 57/58/113 58/47/114 
f 10/30/115 55/56/116 54/55/117 
f 12/1/118 11/32/119 54/55/120 
f 5/28/121 46/61/122 55/56/123 
f 3/50/124 48/10/125 49/9/126 
f 50/51/127 51/53/128 64/62/129 
f 52/52/130 66/63/131 64/62/132 
f 53/54/133 75/64/134 76/65/135 
f 82/67/136 79/68/137 66/63/138 
f 55/56/139 46/61/140 1/69/141 
f 55/56/142 1/69/143 67/70/144 
f 56/57/145 54/55/146 67/70/147 
f 57/58/148 56/57/149 68/71/150 
f 58/47/151 57/58/152 69/72/153 
f 59/48/154 58/47/155 70/73/156 
f 60/59/157 59/48/158 71/74/159 
f 61/60/160 60/59/161 72/75/162 
f 62/7/163 61/60/164 73/76/165 
f 44/103/166 40/102/167 52/52/168 
f 28/93/169 21/92/170 51/53/171 
f 20/90/172 75/64/173 30/96/174 
f 19/89/175 18/88/176 75/64/177 
f 47/78/178 4/79/179 76/65/180 
f 8/87/181 47/78/182 75/64/183 
f 20/90/184 19/89/185 75/64/186 
f 44/77/187 42/38/188 41/37/189 
f 32/91/190 34/97/191 52/52/192 
f 62/7/193 45/6/194 17/13/195 
f 45/6/196 6/14/197 17/13/198 
f 40/102/199 77/101/200 81/80/201 
f 22/83/202 50/51/203 49/9/204 
f 48/10/205 7/94/206 26/85/207 
f 43/44/208 39/43/209 77/45/210 
f 77/101/211 39/100/212 80/81/213 
f 78/82/214 53/54/215 65/66/216 
f 39/100/217 36/99/218 53/54/219 
f 39/100/220 78/82/221 80/81/222 
f 78/82/223 82/67/224 81/80/225 
f 82/67/226 78/82/227 79/68/228 
f 77/101/229 80/81/230 81/80/231 
f 40/102/232 81/80/233 82/67/234 
f 40/46/235 44/77/236 41/37/237 
f 42/98/238 44/103/239 52/52/240 
f 23/4/241 12/1/242 13/2/243 
f 74/8/244 2/5/245 45/6/246 
f 25/86/247 49/9/248 48/10/249 
f 18/16/250 17/13/251 6/14/252 
f 19/18/253 16/17/254 17/13/255 
f 20/20/256 15/19/257 16/17/258 
f 21/24/259 14/21/260 31/22/261 
f 22/3/262 13/2/263 27/25/264 
f 9/29/265 26/11/266 7/27/267 
f 10/30/268 25/12/269 26/11/270 
f 11/32/271 24/31/272 25/12/273 
f 12/1/274 23/4/275 24/31/276 
f 28/26/277 27/25/278 14/21/279 
f 30/34/280 29/33/281 15/19/282 
f 32/23/283 31/22/284 33/35/285 
f 41/37/286 42/38/287 33/35/288 
f 36/40/289 35/39/290 29/33/291 
f 35/39/292 36/40/293 39/43/294 
f 41/37/295 37/41/296 43/44/297 
f 43/44/298 37/41/299 38/42/300 
f 59/48/301 41/37/302 33/35/303 
f 49/9/304 50/51/305 63/49/306 
f 23/84/307 49/9/308 25/86/309 
f 51/53/310 21/92/311 32/91/312 
f 56/57/313 27/25/314 13/2/315 
f 57/58/316 14/21/317 27/25/318 
f 29/33/319 62/7/320 16/17/321 
f 59/48/322 60/59/323 37/41/324 
f 60/59/325 61/60/326 35/39/327 
f 61/60/328 62/7/329 29/33/330 
f 58/47/331 31/22/332 14/21/333 
f 54/55/334 11/32/335 10/30/336 
f 55/56/337 9/29/338 5/28/339 
f 64/62/340 63/49/341 50/51/342 
f 64/62/343 51/53/344 52/52/345 
f 76/65/346 65/66/347 53/54/348 
f 66/63/349 52/52/350 82/67/351 
f 67/70/352 54/55/353 55/56/354 
f 67/70/355 68/71/356 56/57/357 
f 68/71/358 69/72/359 57/58/360 
f 69/72/361 70/73/362 58/47/363 
f 70/73/364 71/74/365 59/48/366 
f 71/74/367 72/75/368 60/59/369 
f 72/75/370 73/76/371 61/60/372 
f 73/76/373 74/8/374 62/7/375 
f 51/53/376 50/51/377 28/93/378 
f 76/65/379 75/64/380 47/78/381 
f 75/64/382 18/88/383 8/87/384 
f 17/13/385 16/17/386 62/7/387 
f 49/9/388 23/84/389 22/83/390 
f 65/66/391 79/68/392 78/82/393 
f 53/54/394 78/82/395 39/100/396 
f 81/80/397 80/81/398 78/82/399 
f 82/67/400 52/52/401 40/102/402 
f 41/37/403 43/44/404 40/46/405 
f 75/64/406 53/54/407 30/96/408 
# 0 polygons - 136 triangles

