# 3ds Max Wavefront OBJ Exporter v0.97b - (c)2007 guruware
# File Created: 02.04.2017 22:55:36

#
# object FireWallLvl3
#

v  -196.850403 0.000004 35.199741
v  196.850372 0.000004 35.201134
v  -196.850296 0.000004 -35.201180
v  196.850357 0.000004 -35.199833
v  -196.850403 308.440826 28.641573
v  196.850372 308.440826 28.643009
v  -196.850296 308.440826 -28.643078
v  196.850357 308.440826 -28.641708
v  -185.208572 315.201508 34.955086
v  -175.889114 309.206665 21.932493
v  -165.053162 312.571960 33.144810
v  -152.869965 312.228577 32.142048
v  -141.059448 308.440826 19.200554
v  -70.792725 311.516022 23.678873
v  157.555023 326.307037 16.448126
v  170.557877 323.718933 23.679787
v  183.538345 315.042114 23.679832
v  186.661743 314.334137 -35.199764
v  175.862671 311.963074 -35.199787
v  159.387726 316.572632 -35.199856
v  -63.334244 311.516022 -43.424465
v  -144.895996 308.440826 -35.200996
v  -154.537262 324.341492 -35.723804
v  -171.222488 322.525421 -31.869665
v  -177.060913 309.206665 -35.201111
v  -185.124023 315.201508 -35.201134
v  -120.811821 317.102966 27.193565
v  -109.085732 317.102966 -44.989540
v  147.197556 310.904816 23.679695
v  151.122742 308.520233 -35.199879
v  -58.930573 316.151764 34.286594
v  -43.740467 316.151764 -46.994587
v  -14.251175 312.546722 33.483028
v  -31.676107 310.626862 -30.884930
v  106.167786 303.946014 24.722120
v  113.123299 310.860168 -40.113811
v  44.248344 312.621765 34.965927
v  97.161880 315.883820 16.896246
v  101.099236 318.811676 -40.959732
v  17.833467 321.348145 -42.361847
v  -3.657619 317.051483 33.231274
v  -19.526148 320.004333 -38.996262
v  60.919563 318.730469 1.065291
v  3.962778 318.592133 -31.718300
v  196.850357 270.261871 39.823082
v  -196.850418 270.261871 39.821621
v  196.850494 270.261871 -39.821827
v  -196.850281 270.261871 -39.823219
v  -164.206116 299.335846 -57.086685
v  -126.729004 263.524323 -49.180782
v  -50.395306 270.261871 -48.098446
v  -24.302315 270.261871 -44.036366
v  114.002777 270.261871 -43.479099
v  -166.833206 258.678467 37.547432
v  -184.013931 270.261871 36.236645
v  -131.821732 250.760544 32.338688
v  -86.375000 244.497009 30.853964
v  -27.474468 232.291534 42.653580
v  -0.256961 248.711121 33.037716
v  51.307114 242.968643 45.939930
v  107.847633 235.388443 38.468590
v  157.267807 270.261871 48.774467
v  -119.638580 0.000004 -35.200905
v  -52.111912 0.000004 -35.200630
v  114.048935 0.000004 -39.611927
v  -0.236003 0.000004 -35.200447
v  -146.771881 0.000004 23.678600
v  -116.112160 0.000004 23.678713
v  -51.520100 0.000004 24.895918
v  -19.303963 0.000004 25.213917
v  44.963829 0.000004 23.679308
v  76.887154 0.000004 23.679445
v  129.972443 0.000004 29.271660
v  174.283356 0.000004 23.679787
v  174.581436 270.261871 -37.425186
v  166.008743 0.000004 -36.843182
v  66.307137 314.706116 -20.557533
v  66.263000 270.261871 -43.671448
v  58.785160 0.000004 -37.478699
v  66.288109 295.542053 -30.524097
v  42.306019 307.845795 -47.757923
v  46.078461 270.261871 -43.752781
# 82 vertices

vn 0.108120 0.741688 0.661974
vn 0.340736 0.703032 -0.624215
vn 0.273950 0.870026 -0.409885
vn 0.096769 0.140625 0.985322
vn -0.055065 0.196769 0.978902
vn -0.102623 -0.048586 0.993533
vn -0.353519 0.099475 -0.930123
vn -0.020030 0.787615 -0.615842
vn -0.287140 0.705895 -0.647505
vn 0.071064 0.678145 0.731484
vn 0.413488 0.649693 -0.637908
vn 0.214936 0.696399 -0.684713
vn 0.271096 0.801070 0.533661
vn 0.214936 0.696399 -0.684713
vn 0.043871 0.637885 -0.768881
vn 0.184752 0.847150 0.498200
vn 0.043871 0.637885 -0.768881
vn -0.148427 0.705904 -0.692581
vn -0.288314 0.654003 0.699397
vn 0.152933 0.701960 -0.695603
vn -0.065602 0.716726 -0.694263
vn -0.125851 0.737347 0.663687
vn -0.055779 0.744825 -0.664924
vn 0.340736 0.703032 -0.624215
vn -0.491578 0.699292 -0.518981
vn -0.414711 0.652524 0.634214
vn 0.106939 0.696485 0.709558
vn -0.020030 0.787615 -0.615842
vn 0.106939 0.696485 0.709558
vn 0.139726 0.848123 0.511042
vn -0.287140 0.705895 -0.647505
vn 0.139726 0.848123 0.511042
vn -0.249175 0.640352 0.726541
vn -0.492583 0.794479 -0.355199
vn -0.249175 0.640352 0.726541
vn 0.340525 0.577721 0.741810
vn -0.185395 0.738736 0.647995
vn -0.065602 0.716726 -0.694263
vn -0.055779 0.744825 -0.664924
vn -0.305711 0.921465 0.239673
vn -0.148427 0.705904 -0.692581
vn -0.154650 0.589675 -0.792696
vn -0.065906 0.643981 0.762197
vn 0.181479 0.819762 -0.543191
vn 0.152933 0.701960 -0.695603
vn -0.065906 0.643981 0.762197
vn -0.199649 0.738810 -0.643661
vn 0.181479 0.819762 -0.543191
vn -0.310124 0.719414 0.621503
vn -0.154650 0.589675 -0.792696
vn 0.190870 0.699354 -0.688820
vn 0.032627 0.638162 0.769210
vn 0.159967 0.621169 0.767176
vn 0.310038 0.869652 0.384164
vn 0.136274 0.774929 -0.617183
vn 0.310038 0.869652 0.384164
vn 0.159967 0.621169 0.767176
vn 0.310038 0.869652 0.384164
vn 0.136274 0.774929 -0.617183
vn 0.024407 0.998774 0.043077
vn -0.008621 0.840025 -0.542480
vn -0.086533 0.743331 -0.663303
vn 0.024407 0.998774 0.043077
vn -0.065906 0.643981 0.762197
vn 0.047264 -0.000495 0.998882
vn 0.040995 0.005504 0.999144
vn 0.005683 -0.055760 -0.998428
vn -0.032031 -0.061413 -0.997598
vn -0.086269 0.370773 -0.924708
vn -0.287140 0.705895 -0.647505
vn -0.492583 0.794479 -0.355199
vn 0.273950 0.870026 -0.409885
vn 0.340736 0.703032 -0.624215
vn -0.055779 0.744825 -0.664924
vn 0.051598 0.050818 -0.997374
vn 0.152933 0.701960 -0.695603
vn 0.059462 0.044030 -0.997259
vn 0.043227 0.001770 -0.999064
vn 0.181479 0.819762 -0.543191
vn -0.199649 0.738810 -0.643661
vn 0.059462 0.044030 -0.997259
vn 0.190870 0.699354 -0.688820
vn -0.154650 0.589675 -0.792696
vn 0.041260 0.031288 -0.998658
vn 0.108120 0.741688 0.661974
vn 0.340525 0.577721 0.741810
vn 0.030626 0.056627 0.997926
vn 0.139726 0.848123 0.511042
vn 0.106939 0.696485 0.709558
vn 0.123031 0.120962 0.985003
vn 0.108120 0.741688 0.661974
vn 0.030626 0.056627 0.997926
vn 0.040361 0.051212 0.997872
vn -0.125851 0.737347 0.663687
vn 0.040361 0.051212 0.997872
vn -0.037765 0.032036 0.998773
vn -0.065906 0.643981 0.762197
vn -0.288314 0.654003 0.699397
vn 0.047264 -0.000495 0.998882
vn 0.184752 0.847150 0.498200
vn -0.305711 0.921465 0.239673
vn -0.310124 0.719414 0.621503
vn 0.032627 0.638162 0.769210
vn -0.087412 0.707066 0.701724
vn 0.040995 0.005504 0.999144
vn 0.159967 0.621169 0.767176
vn 0.032627 0.638162 0.769210
vn -0.026897 0.037316 0.998941
vn -0.310124 0.719414 0.621503
vn 0.159967 0.621169 0.767176
vn -0.022746 0.059263 0.997983
vn -0.185395 0.738736 0.647995
vn -0.037765 0.032036 0.998773
vn 0.047264 -0.000495 0.998882
vn 0.139726 0.848123 0.511042
vn 0.123031 0.120962 0.985003
vn 0.030626 0.056627 0.997926
vn 0.340525 0.577721 0.741810
vn -0.249175 0.640352 0.726541
vn 0.030626 0.056627 0.997926
vn -0.414711 0.652524 0.634214
vn 0.182290 0.117838 0.976158
vn 0.123031 0.120962 0.985003
vn -0.032031 -0.061413 -0.997598
vn -0.353519 0.099475 -0.930123
vn -0.086269 0.370773 -0.924708
vn 0.051598 0.050818 -0.997374
vn 0.043227 0.001770 -0.999064
vn 0.005773 -0.038937 -0.999225
vn 0.059462 0.044030 -0.997259
vn -0.010721 -0.026635 -0.999588
vn 0.005773 -0.038937 -0.999225
vn 0.041260 0.031288 -0.998658
vn 0.015301 0.054676 -0.998387
vn 0.034779 -0.012837 -0.999313
vn -0.014807 -0.044396 -0.998904
vn -0.024879 -0.021222 -0.999465
vn -0.010721 -0.026635 -0.999588
vn 0.123031 0.120962 0.985003
vn 0.182290 0.117838 0.976158
vn 0.153344 -0.013317 0.988083
vn 0.123031 0.120962 0.985003
vn 0.153344 -0.013317 0.988083
vn 0.070626 -0.024506 0.997202
vn 0.040361 0.051212 0.997872
vn 0.030626 0.056627 0.997926
vn 0.070626 -0.024506 0.997202
vn -0.037765 0.032036 0.998773
vn 0.040361 0.051212 0.997872
vn -0.004157 -0.028145 0.999595
vn 0.047264 -0.000495 0.998882
vn -0.037765 0.032036 0.998773
vn -0.023387 -0.047058 0.998618
vn 0.040995 0.005504 0.999144
vn 0.047264 -0.000495 0.998882
vn 0.016786 -0.049857 0.998615
vn -0.026897 0.037316 0.998941
vn 0.040995 0.005504 0.999144
vn -0.008521 -0.060028 0.998160
vn -0.022746 0.059263 0.997983
vn -0.026897 0.037316 0.998941
vn -0.022932 -0.064623 0.997646
vn -0.055065 0.196769 0.978902
vn -0.022746 0.059263 0.997983
vn -0.003350 -0.059648 0.998214
vn -0.184644 0.884174 -0.429118
vn -0.086533 0.743331 -0.663303
vn 0.059462 0.044030 -0.997259
vn -0.055779 0.744825 -0.664924
vn -0.065602 0.716726 -0.694263
vn 0.043227 0.001770 -0.999064
vn -0.148427 0.705904 -0.692581
vn 0.015301 0.054676 -0.998387
vn -0.154650 0.589675 -0.792696
vn 0.043871 0.637885 -0.768881
vn 0.214936 0.696399 -0.684713
vn 0.015301 0.054676 -0.998387
vn -0.065875 0.128155 -0.989564
vn 0.035601 -0.015499 -0.999246
vn 0.034779 -0.012837 -0.999313
vn 0.413488 0.649693 -0.637908
vn -0.065875 0.128155 -0.989564
vn 0.015301 0.054676 -0.998387
vn -0.148427 0.705904 -0.692581
vn 0.043871 0.637885 -0.768881
vn 0.015301 0.054676 -0.998387
vn -0.184644 0.884174 -0.429118
vn -0.199649 0.738810 -0.643661
vn -0.087412 0.707066 0.701724
vn 0.152933 0.701960 -0.695603
vn 0.181479 0.819762 -0.543191
vn 0.059462 0.044030 -0.997259
vn -0.055065 0.196769 0.978902
vn 0.096769 0.140625 0.985322
vn 0.271096 0.801070 0.533661
vn 0.096769 0.140625 0.985322
vn 0.071064 0.678145 0.731484
vn 0.271096 0.801070 0.533661
vn -0.086533 0.743331 -0.663303
vn -0.008621 0.840025 -0.542480
vn 0.141133 0.367046 -0.919434
vn 0.340736 0.703032 -0.624215
vn 0.051598 0.050818 -0.997374
vn -0.086269 0.370773 -0.924708
vn -0.353519 0.099475 -0.930123
vn -0.491578 0.699292 -0.518981
vn -0.020030 0.787615 -0.615842
vn 0.024407 0.998774 0.043077
vn 0.136274 0.774929 -0.617183
vn -0.008621 0.840025 -0.542480
vn -0.008621 0.840025 -0.542480
vn 0.136274 0.774929 -0.617183
vn 0.081920 0.425077 -0.901443
vn 0.022424 0.089131 -0.995767
vn 0.041260 0.031288 -0.998658
vn 0.007043 -0.015877 -0.999849
vn 0.136274 0.774929 -0.617183
vn 0.190870 0.699354 -0.688820
vn 0.041260 0.031288 -0.998658
vn 0.136274 0.774929 -0.617183
vn 0.022424 0.089131 -0.995767
vn 0.081920 0.425077 -0.901443
vn 0.022424 0.089131 -0.995767
vn -0.014807 -0.044396 -0.998904
vn 0.141133 0.367046 -0.919434
vn -0.014807 -0.044396 -0.998904
vn 0.022424 0.089131 -0.995767
vn -0.024879 -0.021222 -0.999465
vn -0.008621 0.840025 -0.542480
vn 0.081920 0.425077 -0.901443
vn 0.141133 0.367046 -0.919434
vn -0.086533 0.743331 -0.663303
vn 0.141133 0.367046 -0.919434
vn -0.014807 -0.044396 -0.998904
vn -0.086533 0.743331 -0.663303
vn -0.184644 0.884174 -0.429118
vn -0.087412 0.707066 0.701724
vn -0.199649 0.738810 -0.643661
vn -0.184644 0.884174 -0.429118
vn 0.059462 0.044030 -0.997259
vn 0.273950 0.870026 -0.409885
vn 0.340525 0.577721 0.741810
vn 0.108120 0.741688 0.661974
vn -0.102623 -0.048586 0.993533
vn -0.323033 -0.014677 0.946274
vn 0.096769 0.140625 0.985322
vn -0.287140 0.705895 -0.647505
vn -0.086269 0.370773 -0.924708
vn -0.353519 0.099475 -0.930123
vn 0.214936 0.696399 -0.684713
vn 0.271096 0.801070 0.533661
vn 0.071064 0.678145 0.731484
vn 0.043871 0.637885 -0.768881
vn 0.184752 0.847150 0.498200
vn 0.271096 0.801070 0.533661
vn -0.148427 0.705904 -0.692581
vn -0.305711 0.921465 0.239673
vn 0.184752 0.847150 0.498200
vn -0.065602 0.716726 -0.694263
vn -0.185395 0.738736 0.647995
vn -0.288314 0.654003 0.699397
vn 0.340736 0.703032 -0.624215
vn 0.108120 0.741688 0.661974
vn -0.125851 0.737347 0.663687
vn 0.106939 0.696485 0.709558
vn -0.020030 0.787615 -0.615842
vn -0.491578 0.699292 -0.518981
vn 0.139726 0.848123 0.511042
vn -0.287140 0.705895 -0.647505
vn -0.020030 0.787615 -0.615842
vn -0.249175 0.640352 0.726541
vn -0.492583 0.794479 -0.355199
vn -0.287140 0.705895 -0.647505
vn 0.340525 0.577721 0.741810
vn 0.273950 0.870026 -0.409885
vn -0.492583 0.794479 -0.355199
vn -0.055779 0.744825 -0.664924
vn -0.125851 0.737347 0.663687
vn -0.185395 0.738736 0.647995
vn -0.154650 0.589675 -0.792696
vn -0.310124 0.719414 0.621503
vn -0.305711 0.921465 0.239673
vn 0.152933 0.701960 -0.695603
vn -0.288314 0.654003 0.699397
vn -0.065906 0.643981 0.762197
vn -0.087412 0.707066 0.701724
vn -0.199649 0.738810 -0.643661
vn -0.065906 0.643981 0.762197
vn 0.190870 0.699354 -0.688820
vn 0.159967 0.621169 0.767176
vn -0.310124 0.719414 0.621503
vn 0.159967 0.621169 0.767176
vn 0.190870 0.699354 -0.688820
vn 0.136274 0.774929 -0.617183
vn -0.087412 0.707066 0.701724
vn 0.032627 0.638162 0.769210
vn 0.024407 0.998774 0.043077
vn 0.024407 0.998774 0.043077
vn 0.032627 0.638162 0.769210
vn 0.310038 0.869652 0.384164
vn 0.040995 0.005504 0.999144
vn -0.087412 0.707066 0.701724
vn -0.065906 0.643981 0.762197
vn -0.086269 0.370773 -0.924708
vn 0.051598 0.050818 -0.997374
vn 0.005683 -0.055760 -0.998428
vn 0.273950 0.870026 -0.409885
vn -0.086269 0.370773 -0.924708
vn -0.287140 0.705895 -0.647505
vn 0.043227 0.001770 -0.999064
vn -0.065602 0.716726 -0.694263
vn 0.152933 0.701960 -0.695603
vn 0.040361 0.051212 0.997872
vn -0.125851 0.737347 0.663687
vn 0.108120 0.741688 0.661974
vn -0.037765 0.032036 0.998773
vn -0.185395 0.738736 0.647995
vn -0.125851 0.737347 0.663687
vn -0.310124 0.719414 0.621503
vn -0.055065 0.196769 0.978902
vn 0.184752 0.847150 0.498200
vn 0.040995 0.005504 0.999144
vn -0.026897 0.037316 0.998941
vn 0.032627 0.638162 0.769210
vn -0.026897 0.037316 0.998941
vn -0.022746 0.059263 0.997983
vn 0.159967 0.621169 0.767176
vn -0.022746 0.059263 0.997983
vn -0.055065 0.196769 0.978902
vn -0.310124 0.719414 0.621503
vn 0.047264 -0.000495 0.998882
vn -0.288314 0.654003 0.699397
vn -0.185395 0.738736 0.647995
vn 0.030626 0.056627 0.997926
vn -0.249175 0.640352 0.726541
vn 0.139726 0.848123 0.511042
vn 0.123031 0.120962 0.985003
vn 0.106939 0.696485 0.709558
vn -0.414711 0.652524 0.634214
vn 0.005773 -0.038937 -0.999225
vn 0.005683 -0.055760 -0.998428
vn 0.051598 0.050818 -0.997374
vn 0.005773 -0.038937 -0.999225
vn 0.043227 0.001770 -0.999064
vn 0.059462 0.044030 -0.997259
vn 0.034779 -0.012837 -0.999313
vn 0.007043 -0.015877 -0.999849
vn 0.041260 0.031288 -0.998658
vn -0.010721 -0.026635 -0.999588
vn 0.059462 0.044030 -0.997259
vn -0.014807 -0.044396 -0.998904
vn 0.070626 -0.024506 0.997202
vn 0.030626 0.056627 0.997926
vn 0.123031 0.120962 0.985003
vn 0.070626 -0.024506 0.997202
vn -0.004157 -0.028145 0.999595
vn 0.040361 0.051212 0.997872
vn -0.004157 -0.028145 0.999595
vn -0.023387 -0.047058 0.998618
vn -0.037765 0.032036 0.998773
vn -0.023387 -0.047058 0.998618
vn 0.016786 -0.049857 0.998615
vn 0.047264 -0.000495 0.998882
vn 0.016786 -0.049857 0.998615
vn -0.008521 -0.060028 0.998160
vn 0.040995 0.005504 0.999144
vn -0.008521 -0.060028 0.998160
vn -0.022932 -0.064623 0.997646
vn -0.026897 0.037316 0.998941
vn -0.022932 -0.064623 0.997646
vn -0.003350 -0.059648 0.998214
vn -0.022746 0.059263 0.997983
vn -0.003350 -0.059648 0.998214
vn -0.102623 -0.048586 0.993533
vn -0.055065 0.196769 0.978902
vn 0.043227 0.001770 -0.999064
vn 0.051598 0.050818 -0.997374
vn -0.055779 0.744825 -0.664924
vn 0.034779 -0.012837 -0.999313
vn 0.015301 0.054676 -0.998387
vn -0.065875 0.128155 -0.989564
vn 0.015301 0.054676 -0.998387
vn 0.214936 0.696399 -0.684713
vn 0.413488 0.649693 -0.637908
vn 0.271096 0.801070 0.533661
vn 0.184752 0.847150 0.498200
vn -0.055065 0.196769 0.978902
vn -0.086269 0.370773 -0.924708
vn 0.273950 0.870026 -0.409885
vn 0.340736 0.703032 -0.624215
vn 0.007043 -0.015877 -0.999849
vn -0.024879 -0.021222 -0.999465
vn 0.022424 0.089131 -0.995767
vn 0.041260 0.031288 -0.998658
vn 0.022424 0.089131 -0.995767
vn 0.136274 0.774929 -0.617183
vn 0.141133 0.367046 -0.919434
vn 0.081920 0.425077 -0.901443
vn 0.022424 0.089131 -0.995767
vn -0.014807 -0.044396 -0.998904
vn 0.059462 0.044030 -0.997259
vn -0.086533 0.743331 -0.663303
vn -0.087412 0.707066 0.701724
vn 0.024407 0.998774 0.043077
vn -0.086533 0.743331 -0.663303
vn 0.015301 0.054676 -0.998387
vn 0.041260 0.031288 -0.998658
vn -0.154650 0.589675 -0.792696
# 408 vertex normals

vt 0.121301 0.466425 0.000000
vt 0.154534 0.470656 0.000000
vt 0.148237 0.525413 0.000000
vt 0.117158 0.519699 0.000000
vt 0.999799 0.111199 0.000000
vt 0.999799 0.418531 0.000000
vt 0.899161 0.417713 0.000000
vt 0.934866 0.111757 0.000000
vt 0.090741 0.546030 0.000000
vt 0.000154 0.571360 0.000000
vt 0.028465 0.523940 0.000000
vt 0.048021 0.525791 0.000000
vt 0.970149 0.472838 0.000000
vt 0.999799 0.467012 0.000000
vt 0.999799 0.525609 0.000000
vt 0.973677 0.522833 0.000000
vt 0.940755 0.476179 0.000000
vt 0.947827 0.525446 0.000000
vt 0.913501 0.479865 0.000000
vt 0.905859 0.521090 0.000000
vt 0.328589 0.468962 0.000000
vt 0.360790 0.466720 0.000000
vt 0.391144 0.530528 0.000000
vt 0.345776 0.529968 0.000000
vt 0.205919 0.470911 0.000000
vt 0.236271 0.527471 0.000000
vt 0.000136 0.525618 0.000000
vt 0.000252 0.467045 0.000000
vt 0.025663 0.468492 0.000000
vt 0.055111 0.471295 0.000000
vt 0.080026 0.518766 0.000000
vt 0.091490 0.466329 0.000000
vt 0.877839 0.469844 0.000000
vt 0.881999 0.524019 0.000000
vt 0.471126 0.466642 0.000000
vt 0.426295 0.525354 0.000000
vt 0.498376 0.467642 0.000000
vt 0.459314 0.524633 0.000000
vt 0.774013 0.463162 0.000000
vt 0.789907 0.523155 0.000000
vt 0.615295 0.466886 0.000000
vt 0.745861 0.475135 0.000000
vt 0.763422 0.520833 0.000000
vt 0.657612 0.495053 0.000000
vt 0.672190 0.516144 0.000000
vt 0.547948 0.523629 0.000000
vt 0.439586 0.374106 0.000000
vt 0.511446 0.393462 0.000000
vt 0.207808 0.883999 0.000000
vt 0.000225 0.877771 0.000000
vt 0.187530 0.584552 0.000000
vt 0.444072 0.577713 0.000000
vt 0.378023 0.577845 0.000000
vt 0.792151 0.571666 0.000000
vt 0.091463 0.407635 0.000000
vt 0.041830 0.421267 0.000000
vt 0.177945 0.398089 0.000000
vt 0.290075 0.389931 0.000000
vt 0.638645 0.388432 0.000000
vt 0.776684 0.381464 0.000000
vt 0.000287 0.418518 0.000000
vt 0.377248 0.883757 0.000000
vt 0.508545 0.883012 0.000000
vt 0.943096 0.571806 0.000000
vt 0.921978 0.877900 0.000000
vt 0.793772 0.878519 0.000000
vt 0.621091 0.575654 0.000000
vt 0.656812 0.880569 0.000000
vt 0.000182 0.111220 0.000000
vt 0.141621 0.114278 0.000000
vt 0.217177 0.113639 0.000000
vt 0.377159 0.112493 0.000000
vt 0.457319 0.111469 0.000000
vt 0.615817 0.111165 0.000000
vt 0.695390 0.112290 0.000000
vt 0.826019 0.112789 0.000000
vt 0.514671 0.521402 0.000000
vt 0.999799 0.571354 0.000000
vt 0.999799 0.877782 0.000000
vt 0.605944 0.535082 0.000000
vt 0.672570 0.541829 0.000000
vt 0.672903 0.573200 0.000000
# 82 texture coords

g FireWallLvl3
s 1
f 13/2/1 22/3/2 23/4/3 
f 45/6/4 62/7/5 74/8/6 
f 48/10/7 26/11/8 25/12/9 
f 6/14/10 8/15/11 18/16/12 
f 17/13/13 18/16/14 19/18/15 
f 16/17/16 19/18/17 20/20/18 
f 31/22/19 32/23/20 21/24/21 
f 27/25/22 28/26/23 22/3/24 
f 7/27/25 5/28/26 9/29/27 
f 26/11/28 9/29/29 10/30/30 
f 25/12/31 10/30/32 11/32/33 
f 24/31/34 11/32/35 12/1/36 
f 14/21/37 21/24/38 28/26/39 
f 15/19/40 20/20/41 30/34/42 
f 33/35/43 34/36/44 32/23/45 
f 33/35/46 42/38/47 34/36/48 
f 29/33/49 30/34/50 36/40/51 
f 37/41/52 35/39/53 38/42/54 
f 39/43/55 38/42/56 35/39/57 
f 38/42/58 39/43/59 43/44/60 
f 77/45/61 40/46/62 43/44/63 
f 33/35/64 58/47/65 59/48/66 
f 63/49/67 3/50/68 49/9/69 
f 25/12/70 24/31/71 23/4/72 
f 22/3/73 28/26/74 50/51/75 
f 32/23/76 52/52/77 51/53/78 
f 34/36/79 42/38/80 52/52/81 
f 36/40/82 30/34/83 53/54/84 
f 13/2/85 12/1/86 54/55/87 
f 10/30/88 9/29/89 55/56/90 
f 13/2/91 54/55/92 56/57/93 
f 27/25/94 56/57/95 57/58/96 
f 33/35/97 31/22/98 58/47/99 
f 16/17/100 15/19/101 29/33/102 
f 37/41/103 41/37/104 59/48/105 
f 35/39/106 37/41/107 60/59/108 
f 29/33/109 35/39/110 61/60/111 
f 14/21/112 57/58/113 58/47/114 
f 10/30/115 55/56/116 54/55/117 
f 12/1/118 11/32/119 54/55/120 
f 5/28/121 46/61/122 55/56/123 
f 3/50/124 48/10/125 49/9/126 
f 50/51/127 51/53/128 64/62/129 
f 52/52/130 66/63/131 64/62/132 
f 53/54/133 75/64/134 76/65/135 
f 82/67/136 79/68/137 66/63/138 
f 55/56/139 46/61/140 1/69/141 
f 55/56/142 1/69/143 67/70/144 
f 56/57/145 54/55/146 67/70/147 
f 57/58/148 56/57/149 68/71/150 
f 58/47/151 57/58/152 69/72/153 
f 59/48/154 58/47/155 70/73/156 
f 60/59/157 59/48/158 71/74/159 
f 61/60/160 60/59/161 72/75/162 
f 62/7/163 61/60/164 73/76/165 
f 44/77/166 40/46/167 52/52/168 
f 28/26/169 21/24/170 51/53/171 
f 20/20/172 75/64/173 30/34/174 
f 19/18/175 18/16/176 75/64/177 
f 47/78/178 4/79/179 76/65/180 
f 8/15/181 47/78/182 75/64/183 
f 20/20/184 19/18/185 75/64/186 
f 44/77/187 42/38/188 41/37/189 
f 32/23/190 34/36/191 52/52/192 
f 62/7/193 45/6/194 17/13/195 
f 45/6/196 6/14/197 17/13/198 
f 40/46/199 77/45/200 81/80/201 
f 22/3/202 50/51/203 49/9/204 
f 48/10/205 7/27/206 26/11/207 
f 43/44/208 39/43/209 77/45/210 
f 77/45/211 39/43/212 80/81/213 
f 78/82/214 53/54/215 65/66/216 
f 39/43/217 36/40/218 53/54/219 
f 39/43/220 78/82/221 80/81/222 
f 78/82/223 82/67/224 81/80/225 
f 82/67/226 78/82/227 79/68/228 
f 77/45/229 80/81/230 81/80/231 
f 40/46/232 81/80/233 82/67/234 
f 40/46/235 44/77/236 41/37/237 
f 42/38/238 44/77/239 52/52/240 
f 23/4/241 12/1/242 13/2/243 
f 74/8/244 2/5/245 45/6/246 
f 25/12/247 49/9/248 48/10/249 
f 18/16/250 17/13/251 6/14/252 
f 19/18/253 16/17/254 17/13/255 
f 20/20/256 15/19/257 16/17/258 
f 21/24/259 14/21/260 31/22/261 
f 22/3/262 13/2/263 27/25/264 
f 9/29/265 26/11/266 7/27/267 
f 10/30/268 25/12/269 26/11/270 
f 11/32/271 24/31/272 25/12/273 
f 12/1/274 23/4/275 24/31/276 
f 28/26/277 27/25/278 14/21/279 
f 30/34/280 29/33/281 15/19/282 
f 32/23/283 31/22/284 33/35/285 
f 41/37/286 42/38/287 33/35/288 
f 36/40/289 35/39/290 29/33/291 
f 35/39/292 36/40/293 39/43/294 
f 41/37/295 37/41/296 43/44/297 
f 43/44/298 37/41/299 38/42/300 
f 59/48/301 41/37/302 33/35/303 
f 49/9/304 50/51/305 63/49/306 
f 23/4/307 49/9/308 25/12/309 
f 51/53/310 21/24/311 32/23/312 
f 56/57/313 27/25/314 13/2/315 
f 57/58/316 14/21/317 27/25/318 
f 29/33/319 62/7/320 16/17/321 
f 59/48/322 60/59/323 37/41/324 
f 60/59/325 61/60/326 35/39/327 
f 61/60/328 62/7/329 29/33/330 
f 58/47/331 31/22/332 14/21/333 
f 54/55/334 11/32/335 10/30/336 
f 55/56/337 9/29/338 5/28/339 
f 64/62/340 63/49/341 50/51/342 
f 64/62/343 51/53/344 52/52/345 
f 76/65/346 65/66/347 53/54/348 
f 66/63/349 52/52/350 82/67/351 
f 67/70/352 54/55/353 55/56/354 
f 67/70/355 68/71/356 56/57/357 
f 68/71/358 69/72/359 57/58/360 
f 69/72/361 70/73/362 58/47/363 
f 70/73/364 71/74/365 59/48/366 
f 71/74/367 72/75/368 60/59/369 
f 72/75/370 73/76/371 61/60/372 
f 73/76/373 74/8/374 62/7/375 
f 51/53/376 50/51/377 28/26/378 
f 76/65/379 75/64/380 47/78/381 
f 75/64/382 18/16/383 8/15/384 
f 17/13/385 16/17/386 62/7/387 
f 49/9/388 23/4/389 22/3/390 
f 65/66/391 79/68/392 78/82/393 
f 53/54/394 78/82/395 39/43/396 
f 81/80/397 80/81/398 78/82/399 
f 82/67/400 52/52/401 40/46/402 
f 41/37/403 43/44/404 40/46/405 
f 75/64/406 53/54/407 30/34/408 
# 0 polygons - 136 triangles

